<svg width="92" height="92" viewBox="0 0 92 92" fill="none" xmlns="http://www.w3.org/2000/svg">
<g clip-path="url(#clip0)">
<path d="M89.7564 90.4568H2.24394C1.74819 90.4568 1.34641 90.055 1.34641 89.5592V85.2663C1.34641 84.7706 1.74819 84.3688 2.24394 84.3688H89.7564C90.2522 84.3688 90.654 84.7706 90.654 85.2663V89.5592C90.654 90.0548 90.252 90.4568 89.7564 90.4568Z" fill="#8D959A"/>
<path d="M26.9945 84.3687H11.5142V64.2121C11.5142 63.7164 11.916 63.3146 12.4118 63.3146H26.0969C26.5927 63.3146 26.9945 63.7164 26.9945 64.2121V84.3687Z" fill="#EB5757"/>
<g style="mix-blend-mode:darken" opacity="0.3">
<path d="M26.9941 64.2128V84.3686H22.6092V64.2128C22.6092 63.7157 22.207 63.3153 21.7116 63.3153H26.0966C26.592 63.3153 26.9941 63.7157 26.9941 64.2128Z" fill="black"/>
</g>
<path d="M53.7403 84.3688H38.2601V49.4882C38.2601 48.9925 38.6619 48.5907 39.1576 48.5907H52.8428C53.3385 48.5907 53.7403 48.9925 53.7403 49.4882V84.3688Z" fill="#2CD37F"/>
<g style="mix-blend-mode:darken" opacity="0.3">
<path d="M53.74 49.489V84.3688H49.3551V49.489C49.3551 48.9918 48.953 48.5914 48.4576 48.5914H52.8425C53.3379 48.5914 53.74 48.9918 53.74 49.489V49.489Z" fill="black"/>
</g>
<path d="M80.4862 84.3688H65.006V32.4439C65.006 31.9482 65.4078 31.5464 65.9035 31.5464H79.5887C80.0845 31.5464 80.4862 31.9482 80.4862 32.4439V84.3688Z" fill="#1292EE"/>
<g style="mix-blend-mode:darken" opacity="0.3">
<path d="M80.4859 32.4447V84.3686H76.101V32.4447C76.101 31.9475 75.6989 31.5471 75.2035 31.5471H79.5884C80.0838 31.5471 80.4859 31.9475 80.4859 32.4447V32.4447Z" fill="black"/>
</g>
<path d="M21.0177 36.5202L23.1261 40.7924C23.2645 41.0727 23.5319 41.267 23.8413 41.3121L28.5559 41.9972C30.169 42.2315 30.813 44.2138 29.6459 45.3516L26.2344 48.6771C26.0105 48.8952 25.9084 49.2097 25.9612 49.5178L26.7666 54.2134C27.0421 55.82 25.3559 57.0451 23.9132 56.2865L19.6963 54.0695C19.4195 53.924 19.0889 53.924 18.8124 54.0695L14.5955 56.2865C13.1528 57.045 11.4666 55.8198 11.742 54.2134L12.5474 49.5178C12.6002 49.2097 12.4982 48.8954 12.2743 48.6771L8.86237 45.3514C7.69512 44.2137 8.3393 42.2313 9.95235 41.997L14.667 41.3119C14.9764 41.267 15.2438 41.0727 15.3821 40.7922L17.4906 36.52C18.212 35.0586 20.2962 35.0586 21.0177 36.5202V36.5202Z" fill="#FFCE79"/>
<g style="mix-blend-mode:darken">
<path d="M26.0222 48.7974C25.7965 49.0163 25.6971 49.3282 25.7501 49.6369L26.553 54.3348C26.8283 55.9407 25.143 57.1649 23.6997 56.4052L19.4828 54.1889C19.2073 54.043 18.8756 54.043 18.6002 54.1889L14.3833 56.4052C12.94 57.1649 11.2546 55.9407 11.53 54.3348L11.7126 53.2632C11.8089 53.2334 11.905 53.1902 12.0013 53.1405C12.6214 52.814 13.2417 52.4877 13.862 52.1612C14.7964 51.6694 15.7316 51.1668 16.723 50.797C17.5332 50.4946 18.4005 50.376 19.2611 50.3436C20.1902 50.3086 21.5634 50.9517 22.1388 49.8827C22.3158 49.5539 22.2604 49.0943 22.3233 48.737C22.6151 47.0764 23.5666 45.5986 24.7881 44.4308C25.5541 43.7009 26.2933 42.9436 27.0509 42.2051C27.1305 42.1254 27.2034 42.0458 27.2633 41.9596L28.3448 42.1188C29.9573 42.3511 30.601 44.3352 29.433 45.4732L26.0222 48.7974Z" fill="#E1A742"/>
</g>
<path d="M47.7634 20.1406L49.8719 24.4129C50.0102 24.6932 50.2776 24.8874 50.587 24.9325L55.3017 25.6177C56.9147 25.852 57.5587 27.8343 56.3916 28.9721L52.9801 32.2976C52.7562 32.5157 52.6542 32.8302 52.707 33.1383L53.5123 37.8339C53.7878 39.4405 52.1016 40.6656 50.6589 39.907L46.442 37.69C46.1653 37.5444 45.8347 37.5444 45.5581 37.69L41.3412 39.907C39.8985 40.6654 38.2123 39.4403 38.4878 37.8339L39.2931 33.1383C39.346 32.8302 39.2439 32.5159 39.02 32.2976L35.6085 28.9721C34.4412 27.8343 35.0854 25.852 36.6984 25.6177L41.4131 24.9325C41.7225 24.8876 41.9899 24.6934 42.1282 24.4129L44.2367 20.1406C44.9578 18.6789 47.0422 18.6789 47.7634 20.1406Z" fill="#FFCE79"/>
<g style="mix-blend-mode:darken">
<path d="M52.7518 32.3244C52.5261 32.5433 52.4268 32.8552 52.4798 33.1639L53.2826 37.8618C53.5579 39.4677 51.8726 40.6919 50.4294 39.9322L46.2124 37.7159C45.937 37.57 45.6053 37.57 45.3298 37.7159L41.1129 39.9322C39.6697 40.6919 37.9842 39.4677 38.2597 37.8618L38.4422 36.7902C38.5385 36.7603 38.6347 36.7172 38.731 36.6674C39.3511 36.341 39.9714 36.0146 40.5916 35.6882C41.526 35.1963 42.4613 34.6938 43.4526 34.324C44.2628 34.0216 45.1302 33.903 45.9907 33.8706C46.9199 33.8356 48.2931 34.4787 48.8684 33.4097C49.0454 33.0809 48.9901 32.6212 49.0529 32.264C49.3448 30.6034 50.2962 29.1256 51.5177 27.9578C52.2837 27.2279 53.023 26.4704 53.7805 25.732C53.8601 25.6524 53.9331 25.5728 53.9929 25.4866L55.0745 25.6458C56.687 25.8781 57.3306 27.8622 56.1626 29.0002L52.7518 32.3244Z" fill="#E1A742"/>
</g>
<path d="M74.5092 2.63965L76.6177 6.9119C76.7561 7.19222 77.0234 7.38646 77.3328 7.43156L82.0475 8.11671C83.6605 8.35102 84.3045 10.3333 83.1375 11.4711L79.7259 14.7966C79.502 15.0147 79.4 15.3292 79.4528 15.6374L80.2582 20.3329C80.5336 21.9395 78.8474 23.1646 77.4047 22.406L73.1878 20.189C72.9111 20.0435 72.5805 20.0435 72.3039 20.189L68.087 22.406C66.6443 23.1645 64.9581 21.9394 65.2336 20.3329L66.0389 15.6374C66.0918 15.3292 65.9897 15.0149 65.7658 14.7966L62.3543 11.4711C61.187 10.3333 61.8312 8.35102 63.4443 8.11671L68.1589 7.43156C68.4683 7.38664 68.7357 7.1924 68.8741 6.9119L70.9825 2.63965C71.7036 1.1779 73.788 1.1779 74.5092 2.63965V2.63965Z" fill="#FFCE79"/>
<g style="mix-blend-mode:darken">
<path d="M79.7266 14.7964C79.501 15.0153 79.4016 15.3272 79.4546 15.6359L80.2574 20.3339C80.5327 21.9397 78.8474 23.1639 77.4042 22.4042L73.1873 20.188C72.9118 20.0421 72.5801 20.0421 72.3047 20.188L68.0877 22.4042C66.6445 23.1639 64.959 21.9397 65.2345 20.3339L65.417 19.2622C65.5134 19.2324 65.6095 19.1893 65.7058 19.1395C66.3259 18.813 66.9462 18.4867 67.5665 18.1602C68.5008 17.6684 69.4361 17.1658 70.4275 16.796C71.2377 16.4936 72.105 16.375 72.9655 16.3427C73.8947 16.3076 75.2679 16.9507 75.8432 15.8818C76.0202 15.5529 75.9649 15.0933 76.0278 14.7361C76.3196 13.0754 77.271 11.5976 78.4925 10.4299C79.2586 9.69997 79.9978 8.94241 80.7554 8.20407C80.835 8.12447 80.9079 8.04487 80.9677 7.95862L82.0493 8.11782C83.6618 8.35016 84.3054 10.3343 83.1375 11.4722L79.7266 14.7964Z" fill="#E1A742"/>
</g>
<path d="M89.7562 83.0224H81.8324V32.444C81.8324 31.2068 80.8258 30.2002 79.5886 30.2002H74.4692C73.7256 30.2002 73.1229 30.8029 73.1229 31.5464C73.1229 32.29 73.7256 32.8926 74.4692 32.8926H79.1399V83.0224H66.3521V32.8926H68.1388C68.8823 32.8926 69.485 32.29 69.485 31.5464C69.485 30.8029 68.8823 30.2002 68.1388 30.2002H65.9034C64.6663 30.2002 63.6597 31.2068 63.6597 32.444V83.0226H55.0866V49.488C55.0866 48.2509 54.08 47.2443 52.8429 47.2443H39.1575C37.9204 47.2443 36.9137 48.2509 36.9137 49.488V83.0224H28.3405V64.2122C28.3405 62.975 27.3339 61.9684 26.0967 61.9684H12.4116C11.1744 61.9684 10.1678 62.975 10.1678 64.2122V70.2326C10.1678 70.9761 10.7705 71.5788 11.514 71.5788C12.2576 71.5788 12.8602 70.9761 12.8602 70.2326V64.661H25.6479V83.0226H12.8602V76.4931C12.8602 75.7495 12.2576 75.1469 11.514 75.1469C10.7705 75.1469 10.1678 75.7495 10.1678 76.4931V83.0226H2.24376C1.00661 83.0224 0 84.029 0 85.2663V89.5592C0 90.7964 1.00661 91.803 2.24376 91.803H89.7562C90.9934 91.803 92 90.7964 92 89.5592V85.2663C92 84.029 90.9934 83.0224 89.7562 83.0224V83.0224ZM39.6062 49.9369H52.394V83.0226H39.6062V49.9369ZM89.3074 89.1106H2.69262V85.7152H11.5142H26.9945H38.2601H53.7404H65.0059H80.4862H89.3076V89.1106H89.3074Z" fill="black"/>
<path d="M11.1851 49.4954L10.4149 53.9856C10.2002 55.2376 10.7053 56.4791 11.7329 57.2257C12.3137 57.6476 12.9931 57.8622 13.677 57.8622C14.2034 57.8622 14.7326 57.7349 15.2217 57.478L19.2541 55.358L23.2865 57.478C24.4106 58.069 25.7473 57.9723 26.7753 57.2259C27.8029 56.4791 28.308 55.2375 28.0933 53.9856L27.3231 49.4954L30.5854 46.3154C31.495 45.4289 31.8162 44.1276 31.4238 42.9195C31.0312 41.7113 30.0066 40.8474 28.7495 40.6646L24.2412 40.0095L22.2251 35.9243C21.6628 34.7851 20.5245 34.0776 19.2541 34.0776C17.9839 34.0776 16.8456 34.7852 16.2835 35.9243L14.2674 40.0095L9.75888 40.6646C8.50178 40.8474 7.47721 41.7111 7.08459 42.9195C6.69215 44.1277 7.01325 45.4289 7.92283 46.3153L11.1851 49.4954ZM9.64532 43.7515C9.68125 43.6411 9.80164 43.3793 10.1461 43.3292L14.8604 42.6441C15.6084 42.5357 16.2548 42.066 16.5895 41.388L18.698 37.116C18.852 36.8039 19.1382 36.7701 19.2541 36.7701C19.37 36.7701 19.6562 36.8037 19.8104 37.116L21.9189 41.3879C22.2534 42.0658 22.8998 42.5355 23.6476 42.6441L28.3623 43.3292C28.7067 43.3793 28.8271 43.6411 28.8631 43.7515C28.899 43.8618 28.9554 44.1445 28.706 44.3872L25.2948 47.7125C24.7533 48.2399 24.5064 49 24.6343 49.745L25.4397 54.4405C25.4984 54.7836 25.2866 54.9792 25.1928 55.0474C25.0988 55.1155 24.8472 55.2567 24.5396 55.0944L20.3227 52.8774C19.9881 52.7015 19.621 52.6137 19.2541 52.6137C18.8872 52.6137 18.5201 52.7017 18.1855 52.8774L13.9686 55.0944C13.6604 55.2565 13.4092 55.1155 13.3154 55.0474C13.2216 54.9791 13.0098 54.7836 13.0685 54.4405L13.8739 49.7451C14.0018 49 13.7548 48.2401 13.2137 47.7127L9.80218 44.3874C9.55296 44.1444 9.60938 43.8618 9.64532 43.7515V43.7515Z" fill="black"/>
<path d="M37.9309 33.1156L37.1608 37.606C36.9461 38.8579 37.451 40.0993 38.4786 40.8459C39.0594 41.2678 39.7388 41.4822 40.4228 41.4822C40.9493 41.4822 41.4785 41.3552 41.9676 41.0982L46 38.9783L50.0323 41.0982C51.1566 41.6896 52.4935 41.5927 53.5215 40.8459C54.5491 40.0993 55.0541 38.8577 54.8393 37.606L54.069 33.1156L57.3314 29.9357C58.241 29.0491 58.5621 27.7478 58.1697 26.5398C57.7772 25.3315 56.7525 24.4678 55.4952 24.285L50.987 23.6299L48.9707 19.5445C48.4085 18.4055 47.2702 17.6979 46 17.6979C44.7298 17.6979 43.5914 18.4055 43.0292 19.5445L41.0131 23.6299L36.5046 24.285C35.2476 24.4678 34.2229 25.3315 33.8303 26.5398C33.4377 27.7476 33.7588 29.0491 34.6685 29.9359L37.9309 33.1156ZM36.391 27.3717C36.4269 27.2614 36.5473 26.9998 36.8918 26.9496L41.6068 26.2645C42.3546 26.1556 43.0006 25.6862 43.3352 25.0085L45.4437 20.7362C45.5976 20.4241 45.8839 20.3905 45.9998 20.3905C46.1157 20.3905 46.4019 20.4241 46.5559 20.7362L48.6647 25.009C48.9991 25.6864 49.6453 26.1556 50.3933 26.2645L55.108 26.9496C55.4524 26.9998 55.5728 27.2617 55.6088 27.3719C55.6445 27.4822 55.7009 27.7647 55.4517 28.0076L52.0402 31.3331C51.4991 31.8607 51.2524 32.6202 51.38 33.3654L52.1853 38.061C52.2441 38.404 52.0323 38.5995 51.9385 38.6676C51.8447 38.7355 51.5931 38.8771 51.2851 38.7147L47.0684 36.4979C46.734 36.3219 46.3669 36.2339 45.9998 36.2339C45.6329 36.2339 45.2658 36.322 44.9312 36.4977L40.7143 38.7147C40.4059 38.8769 40.1547 38.7355 40.0611 38.6676C39.9673 38.5995 39.7556 38.404 39.8144 38.061L40.6198 33.3654C40.7475 32.6206 40.5008 31.8608 39.9594 31.3329L36.5479 28.0078C36.2988 27.7647 36.3552 27.4822 36.391 27.3717V27.3717Z" fill="black"/>
<path d="M64.6767 15.6147L63.9066 20.105C63.6917 21.3568 64.1968 22.5985 65.2244 23.3451C66.2522 24.0917 67.5887 24.1882 68.7134 23.5974L72.7458 21.4774L76.7781 23.5974C77.2672 23.8543 77.7964 23.9814 78.3231 23.9814C79.0072 23.9814 79.6866 23.767 80.2671 23.3451C81.2949 22.5985 81.7999 21.3568 81.585 20.105L80.8148 15.6147L84.077 12.4348C84.9868 11.5482 85.3079 10.2469 84.9155 9.03908C84.523 7.83086 83.4983 6.96693 82.2412 6.78418L77.7328 6.12886L75.7165 2.04367C75.1543 0.904631 74.016 0.197021 72.7458 0.197021C71.4756 0.197021 70.3372 0.904631 69.775 2.04367L67.7587 6.12886L63.2505 6.78418C61.9935 6.96675 60.9687 7.83068 60.5761 9.0389C60.1836 10.2468 60.5047 11.5482 61.4143 12.4348L64.6767 15.6147ZM63.137 9.87103C63.1727 9.76071 63.2931 9.4989 63.6378 9.44877L68.3519 8.76362C69.1005 8.65509 69.747 8.18557 70.0812 7.50761L72.1896 3.23554C72.3438 2.92342 72.6301 2.88982 72.7458 2.88982C72.8615 2.88982 73.1481 2.92342 73.3019 3.23554L75.4105 7.50779C75.7451 8.18557 76.3916 8.65527 77.1391 8.76362L81.8539 9.44877C82.1984 9.4989 82.319 9.76089 82.3547 9.87103C82.3905 9.98136 82.4469 10.2638 82.1977 10.5068L78.786 13.8324C78.2451 14.36 77.9982 15.1195 78.1258 15.8647L78.9312 20.5601C78.9899 20.9033 78.7781 21.0988 78.6843 21.1669C78.5906 21.2352 78.3391 21.3762 78.0309 21.214L73.8142 18.9972C73.4796 18.8213 73.1125 18.7332 72.7456 18.7332C72.3785 18.7332 72.0116 18.8213 71.6772 18.997L67.4603 21.214C67.1523 21.3762 66.9007 21.2348 66.8069 21.1669C66.7131 21.0986 66.5014 20.9033 66.56 20.5601L67.3654 15.865C67.4933 15.1201 67.2466 14.3603 66.7052 13.8322L63.2937 10.5068C63.0444 10.2638 63.101 9.98118 63.137 9.87103V9.87103Z" fill="black"/>
</g>
<defs>
<clipPath id="clip0">
<rect width="92" height="92" fill="white"/>
</clipPath>
</defs>
</svg>
