<svg width="96" height="93" viewBox="0 0 96 93" fill="none" xmlns="http://www.w3.org/2000/svg">
<path d="M94 41.419V16.4715C94 12.3451 90.6549 9 86.5285 9H9.47151C5.34511 9 2 12.3451 2 16.4715V62.8618C2 66.9882 5.3451 70.3333 9.4715 70.3333H86.5285C90.6549 70.3333 94 66.9882 94 62.8618V50.7651" stroke="black" stroke-width="3.32067" stroke-linecap="round"/>
<rect x="2.69702" y="9.69696" width="89.9091" height="59.9394" rx="5.81117" fill="#DFEBFA"/>
<path fill-rule="evenodd" clip-rule="evenodd" d="M17.9039 9.69696C14.7017 9.70534 12.1083 12.3039 12.1083 15.5081V63.8252C12.1083 67.0346 14.7101 69.6363 17.9195 69.6363H84.3745C84.3682 69.6364 84.3618 69.6364 84.3555 69.6364H8.50819C5.29877 69.6364 2.69702 67.0346 2.69702 63.8252V15.5081C2.69702 12.2987 5.29877 9.69696 8.50819 9.69696H17.9039Z" fill="#B1DBFC"/>
<path d="M55.3067 65.2821H62.092L84.2636 57.4775C85.053 57.1604 85.9138 56.9845 86.8161 56.9845C86.837 56.9845 86.8577 56.9847 86.8786 56.9849C87.5999 56.9913 88.1848 56.4 88.1848 55.6751V24.0451C88.1848 23.3202 87.5998 22.7289 86.8786 22.7353C86.8579 22.7355 86.8372 22.7357 86.8165 22.7357C83.0112 22.7359 79.9279 19.6377 79.9278 15.8136C79.9278 15.7926 79.9279 15.7716 79.9281 15.7506C79.9346 15.0258 79.3461 14.438 78.6247 14.438H17.3441C16.6228 14.438 16.0343 15.0258 16.0408 15.7506C16.0409 15.7715 16.0411 15.7921 16.0411 15.8129C16.0413 19.6369 12.9583 22.7355 9.15297 22.7355C9.13208 22.7355 9.11118 22.7353 9.09029 22.7352C8.36895 22.7287 7.78406 23.3201 7.78406 24.0449V55.6749C7.78406 56.3998 8.36895 56.9912 9.09011 56.9847C9.11136 56.9845 9.13261 56.9844 9.15387 56.9844C12.959 56.9849 16.0413 60.0831 16.0411 63.9069C16.0411 63.9278 16.0409 63.9484 16.0408 63.9692C16.0343 64.6941 16.6228 65.2821 17.3441 65.2821H47.2701" stroke="black" stroke-width="3.15097" stroke-linecap="round"/>
<path d="M86.24 23.1512C86.2197 23.1513 86.1993 23.1515 86.1789 23.1515C82.4376 23.1517 79.4063 20.1567 79.4061 16.4602C79.4061 16.4399 79.4063 16.4196 79.4064 16.3993C79.4128 15.6986 78.8342 15.1304 78.125 15.1304H17.8749C17.1657 15.1304 16.5871 15.6986 16.5934 16.3993C16.5936 16.4194 16.5938 16.4394 16.5938 16.4595C16.594 20.156 13.5628 23.1513 9.82148 23.1513C9.80094 23.1513 9.78039 23.1512 9.75985 23.151C9.05064 23.1448 8.47559 23.7164 8.47559 24.4171V54.9928C8.47559 55.6935 9.05064 56.2651 9.75967 56.2589C9.78057 56.2587 9.80146 56.2585 9.82236 56.2585C13.5635 56.2591 16.594 59.254 16.5938 62.9504C16.5938 62.9705 16.5936 62.9905 16.5934 63.0106C16.5871 63.7113 17.1657 64.2797 17.8749 64.2797H61.8703L83.669 56.7353C84.4452 56.4287 85.2915 56.2587 86.1786 56.2587C86.1991 56.2587 86.2195 56.2589 86.24 56.2591C86.9492 56.2653 87.5243 55.6937 87.5243 54.9929V24.4173C87.5243 23.7166 86.9491 23.1449 86.24 23.1512Z" fill="#B1DBFC"/>
<path d="M24.696 63.0106C24.6961 62.9905 24.6963 62.9705 24.6963 62.9504C24.6965 59.254 21.6617 56.2591 17.9154 56.2585C17.8944 56.2585 17.8735 56.2587 17.8526 56.2589C17.1426 56.2651 16.5667 55.6935 16.5667 54.9928V24.4171C16.5667 23.7164 17.1426 23.1448 17.8528 23.151C17.8733 23.1512 17.8939 23.1513 17.9145 23.1513C21.661 23.1513 24.6965 20.156 24.6963 16.4595C24.6963 16.4394 24.6961 16.4193 24.696 16.3993C24.6896 15.6986 25.269 15.1304 25.9792 15.1304H17.8881C17.1779 15.1304 16.5985 15.6986 16.6049 16.3993C16.605 16.4194 16.6052 16.4394 16.6052 16.4595C16.6054 20.156 13.5699 23.1513 9.82337 23.1513C9.8028 23.1513 9.78223 23.1512 9.76165 23.151C9.05145 23.1448 8.47559 23.7164 8.47559 24.4171V54.9928C8.47559 55.6935 9.05145 56.2651 9.76148 56.2589C9.7824 56.2587 9.80333 56.2585 9.82425 56.2585C13.5706 56.2591 16.6054 59.254 16.6052 62.9504C16.6052 62.9705 16.605 62.9905 16.6049 63.0106C16.5985 63.7113 17.1779 64.2797 17.8881 64.2797H25.9792C25.2688 64.2795 24.6896 63.7113 24.696 63.0106V63.0106Z" fill="#8BCAFF"/>
<path d="M35.126 27.3333H60.4862" stroke="black" stroke-width="3.15097" stroke-linecap="round"/>
<path d="M24.2318 33.0513H71.9161" stroke="black" stroke-width="3.15097" stroke-linecap="round"/>
<path d="M24.4108 38.7693H72.0951" stroke="black" stroke-width="3.15097" stroke-linecap="round"/>
<path d="M24.4108 44.4873H72.0951" stroke="black" stroke-width="3.15097" stroke-linecap="round"/>
<path d="M24.053 50.2054H71.7373" stroke="black" stroke-width="3.15097" stroke-linecap="round"/>
<path d="M41.7336 55.9233H54.2352" stroke="black" stroke-width="3.15097" stroke-linecap="round"/>
<g clip-path="url(#clip0)">
<path d="M79.7582 66.6891L74.5822 68.8675L78.533 77.6857L80.4055 74.9993L83.6557 75.3882L79.7582 66.6891Z" fill="#0D66A7"/>
<path d="M62.162 75.3882L65.4122 74.9994L67.2846 77.6857L71.2355 68.8675L66.0595 66.6891L62.162 75.3882Z" fill="#0D66A7"/>
<path d="M68.6002 67.7584L66.0595 66.6891L62.162 75.3882L65.3528 75.0065L67.5107 70.1904C67.892 70.3655 68.3092 70.4643 68.7383 70.4643C68.8914 70.4643 69.0456 70.4523 69.1969 70.4284L70.3572 70.2458L70.562 70.3707L71.2355 68.8675L68.6002 67.7584Z" fill="#1292EE"/>
<path d="M78.3034 70.1824C78.7503 69.9734 79.1464 69.6571 79.4431 69.2487L80.1332 68.2994L80.4456 68.2238L79.758 66.6891L77.2173 67.7584L74.5819 68.8675L78.5329 77.6858L80.4054 74.9993L80.4647 75.0065L78.3034 70.1824Z" fill="#1292EE"/>
<path d="M84.8465 58.1249L84.154 59.2612C83.9978 59.5176 83.9376 59.8211 83.9843 60.1177L84.1907 61.4302C84.2646 61.9001 84.0692 62.372 83.6846 62.6518L82.6112 63.4329C82.3683 63.6098 82.1959 63.8673 82.1253 64.1595L81.8127 65.4517C81.701 65.9132 81.3409 66.2735 80.8797 66.3852L79.5882 66.6978C79.2962 66.7685 79.0387 66.9409 78.862 67.184L78.0815 68.2577C77.8018 68.6424 77.3302 68.8379 76.8604 68.7641L75.5491 68.5576C75.2527 68.5109 74.9492 68.5711 74.693 68.7274L73.5575 69.4202C73.1526 69.6672 72.6437 69.6672 72.2389 69.4202L71.1032 68.7273C70.847 68.571 70.5436 68.5108 70.2472 68.5575L68.9354 68.764C68.4657 68.8379 67.9941 68.6424 67.7145 68.2576L66.9338 67.1837C66.757 66.9406 66.4996 66.7682 66.2076 66.6975L64.916 66.3848C64.4548 66.273 64.0947 65.9127 63.9831 65.4512L63.6706 64.1591C63.5999 63.8669 63.4277 63.6093 63.1846 63.4325L62.1115 62.6515C61.727 62.3717 61.5316 61.8999 61.6054 61.4299L61.8118 60.1179C61.8585 59.8212 61.7983 59.5176 61.6421 59.2612L60.9497 58.1251C60.7028 57.72 60.7028 57.2108 60.9497 56.8058L61.6422 55.6695C61.7984 55.4132 61.8586 55.1096 61.8119 54.813L61.6055 53.5005C61.5316 53.0306 61.727 52.5588 62.1116 52.279L63.1849 51.4978C63.4279 51.321 63.6003 51.0634 63.6709 50.7713L63.9835 49.479C64.0951 49.0176 64.4553 48.6573 64.9165 48.5456L66.208 48.2329C66.5 48.1622 66.7575 47.9899 66.9343 47.7467L67.7148 46.6731C67.9945 46.2883 68.466 46.0928 68.9358 46.1667L70.2471 46.3732C70.5436 46.4198 70.847 46.3597 71.1033 46.2034L72.2387 45.5106C72.6435 45.2636 73.1525 45.2636 73.5573 45.5106L74.693 46.2034C74.9492 46.3597 75.2526 46.42 75.549 46.3732L76.8608 46.1667C77.3305 46.0928 77.8021 46.2883 78.0817 46.6731L78.8624 47.747C79.0392 47.9901 79.2966 48.1626 79.5886 48.2332L80.8801 48.546C81.3414 48.6577 81.7015 49.018 81.8131 49.4795L82.1256 50.7716C82.1963 51.0638 82.3685 51.3215 82.6116 51.4984L83.6846 52.2793C84.0692 52.5591 84.2646 53.0309 84.1908 53.501L83.9844 54.8129C83.9377 55.1096 83.9979 55.4132 84.1541 55.6696L84.8465 56.8056C85.0933 57.2108 85.0933 57.7198 84.8465 58.1249Z" fill="#FFC850"/>
<path d="M65.6 54.9377C65.6 51.5701 66.8624 48.4989 68.937 46.1669L68.9357 46.1667C68.466 46.0927 67.9944 46.2882 67.7147 46.673L66.9343 47.7466C66.7575 47.9897 66.5001 48.1622 66.208 48.2328L64.9165 48.5455C64.4553 48.6572 64.0952 49.0175 63.9835 49.479L63.6709 50.7712C63.6003 51.0634 63.428 51.3209 63.185 51.4978L62.1116 52.2789C61.7271 52.5587 61.5316 53.0305 61.6054 53.5004L61.8118 54.8129C61.8585 55.1095 61.7983 55.413 61.6421 55.6694L60.9496 56.8056C60.7027 57.2106 60.7027 57.7198 60.9496 58.1248L61.642 59.2608C61.7983 59.5172 61.8584 59.8208 61.8117 60.1175L61.6053 61.4296C61.5313 61.8995 61.7268 62.3714 62.1114 62.6512L63.1844 63.4321C63.4274 63.609 63.5997 63.8666 63.6704 64.1588L63.9829 65.451C64.0945 65.9125 64.4546 66.2728 64.9159 66.3845L66.2074 66.6972C66.4994 66.7679 66.7568 66.9403 66.9336 67.1835L67.7142 68.2574C67.9939 68.642 68.4654 68.8376 68.9351 68.7637L70.2469 68.5572C70.5433 68.5106 70.8467 68.5708 71.103 68.7271L72.2387 69.4199C72.6435 69.6669 73.1524 69.6669 73.5572 69.4199L74.6926 68.7271C74.9489 68.5708 75.2524 68.5106 75.5488 68.5573L76.8602 68.7638C77.3299 68.8378 77.8015 68.6423 78.0811 68.2575L78.1799 68.1216C71.1786 67.8014 65.6 62.0221 65.6 54.9377Z" fill="#E1A546"/>
<path d="M72.8979 66.4524C77.8585 66.4524 81.88 62.4289 81.88 57.4656C81.88 52.5023 77.8585 48.4787 72.8979 48.4787C67.9372 48.4787 63.9158 52.5023 63.9158 57.4656C63.9158 62.4289 67.9372 66.4524 72.8979 66.4524Z" fill="#FFDC64"/>
<path d="M74.926 61.7975C71.7441 61.164 69.1989 58.616 68.5674 55.4321C68.3657 54.415 68.3611 53.4266 68.5157 52.4917C68.5742 52.1375 68.1428 51.919 67.8822 52.1657C66.2707 53.6917 65.3533 55.9433 65.6584 58.3998C66.0633 61.661 68.7043 64.3036 71.9637 64.7089C74.4191 65.0144 76.6696 64.0964 78.1951 62.484C78.4416 62.2233 78.2232 61.7917 77.8693 61.8502C76.9334 62.0049 75.944 62.0002 74.926 61.7975Z" fill="#FFC850"/>
<path d="M72.898 60.9692L69.8582 62.6717C69.5419 62.8488 69.1635 62.5737 69.2341 62.2181L69.913 58.7994L67.3554 56.4329C67.0893 56.1866 67.2338 55.7416 67.5937 55.6989L71.0532 55.2885L72.5123 52.1235C72.6641 51.7942 73.1318 51.7942 73.2836 52.1235L74.7427 55.2885L78.2022 55.6989C78.5621 55.7416 78.7066 56.1868 78.4405 56.4329L75.8828 58.7994L76.5617 62.2181C76.6324 62.5737 76.254 62.8488 75.9377 62.6717L72.898 60.9692Z" fill="white"/>
<path d="M72.8981 52.4101L73.2373 52.0707C73.0576 51.8083 72.6534 51.8175 72.5124 52.1234L71.0533 55.2884L67.5938 55.6988C67.2338 55.7415 67.0893 56.1866 67.3554 56.4328L69.9131 58.7993L69.2341 62.218C69.1635 62.5736 69.5419 62.8487 69.8582 62.6716L70.6591 62.223L71.8197 58.8264C71.9449 58.4601 71.8727 58.055 71.6287 57.7546L71.4225 57.5007C71.2751 57.3191 71.3634 57.0458 71.5893 56.9852L71.7831 56.9332C72.2414 56.8102 72.5728 56.4123 72.6112 55.9392L72.8981 52.4101Z" fill="#FFFAB4"/>
<path d="M76.6866 49.9012C76.946 50.0325 77.2626 49.9282 77.3937 49.6686C77.5248 49.4091 77.4208 49.0924 77.1613 48.9612C73.4878 47.1039 69.0626 47.8141 66.1501 50.7282C62.765 54.115 62.4263 59.5152 65.3621 63.2897C65.4658 63.4231 65.621 63.4929 65.7778 63.4929C65.8907 63.4929 66.0046 63.4567 66.1006 63.3818C66.33 63.2032 66.3713 62.8724 66.1928 62.6428C63.5824 59.2869 63.8841 54.4848 66.8945 51.4728C69.4846 48.8811 73.4197 48.2495 76.6866 49.9012Z" fill="black"/>
<path d="M80.6569 52.9343C80.3975 53.0654 80.2934 53.3821 80.4244 53.6418C82.074 56.9099 81.4424 60.8466 78.8527 63.4375C75.8423 66.4494 71.0428 66.7512 67.6887 64.1395C67.4592 63.961 67.1286 64.0022 66.9501 64.2318C66.7715 64.4613 66.8128 64.7921 67.0422 64.9707C68.7606 66.3087 70.816 66.9669 72.8649 66.9669C75.3141 66.9669 77.754 66.0264 79.5971 64.1822C82.5089 61.2689 83.219 56.8422 81.3641 53.167C81.233 52.9074 80.9165 52.8033 80.6569 52.9343Z" fill="black"/>
<path d="M78.467 51.1099C78.5984 51.226 78.7282 51.3482 78.8528 51.4728C78.9773 51.5974 79.0994 51.7272 79.2155 51.8588C79.3195 51.9765 79.4644 52.0366 79.6101 52.0366C79.734 52.0366 79.8583 51.9931 79.9584 51.9046C80.1762 51.712 80.1967 51.3793 80.0043 51.1614C79.8739 51.0138 79.7369 50.868 79.5971 50.7282C79.4573 50.5883 79.3117 50.4513 79.1641 50.3208C78.9463 50.1282 78.6137 50.1488 78.4213 50.3666C78.2286 50.5845 78.2491 50.9173 78.467 51.1099Z" fill="black"/>
<path d="M85.2958 56.5316L84.6034 55.3955C84.5122 55.2458 84.4769 55.068 84.5041 54.8949L84.7105 53.583C84.8157 52.9143 84.5412 52.2517 83.9942 51.8535L82.9211 51.0726C82.7792 50.9694 82.6784 50.8186 82.6371 50.648L82.3246 49.3559C82.166 48.6995 81.6599 48.1932 81.0039 48.0343L79.7124 47.7216C79.5419 47.6803 79.3911 47.5795 79.288 47.4374L78.5074 46.3635C78.1095 45.8162 77.4471 45.5414 76.7791 45.6468L75.4673 45.8532C75.2943 45.8805 75.1166 45.8452 74.9671 45.754L73.8315 45.061C73.2557 44.7098 72.5406 44.7098 71.9649 45.061L70.8294 45.7538C70.6799 45.8451 70.5023 45.8803 70.3291 45.8531L69.0177 45.6466C68.3496 45.5414 67.6873 45.816 67.2894 46.3633L66.5088 47.437C66.4056 47.5789 66.2549 47.6798 66.0844 47.7211L64.7929 48.0338C64.1371 48.1925 63.6309 48.6989 63.4721 49.3552L63.1595 50.6474C63.1183 50.818 63.0175 50.9688 62.8755 51.072L61.8021 51.8531C61.2551 52.2511 60.9806 52.9137 61.0857 53.5823L61.2921 54.8948C61.3193 55.068 61.2841 55.2457 61.1929 55.3953L60.5004 56.5316C60.1494 57.1076 60.1494 57.8232 60.5004 58.3991L61.1928 59.5352C61.2841 59.6849 61.3193 59.8627 61.2921 60.0357L61.0857 61.3478C60.9805 62.0164 61.255 62.6791 61.802 63.0772L62.8751 63.8581C63.017 63.9613 63.1178 64.1121 63.1591 64.2827L63.4716 65.5749C63.6302 66.2312 64.1363 66.7375 64.7923 66.8964L65.3316 67.027L61.6818 75.1728C61.6042 75.3459 61.6257 75.5473 61.7381 75.7001C61.8504 75.853 62.0361 75.9336 62.2245 75.911L65.1612 75.5597L66.853 77.9869C66.952 78.1289 67.1136 78.2123 67.2845 78.2123C67.3009 78.2123 67.3175 78.2115 67.3339 78.21C67.5227 78.1922 67.6874 78.0742 67.7649 77.9012L71.4924 69.5815L71.9647 69.8696C72.2526 70.0452 72.5753 70.133 72.898 70.133C73.2207 70.133 73.5435 70.0452 73.8313 69.8696L74.3207 69.5711L78.0528 77.9012C78.1304 78.0743 78.295 78.1922 78.4839 78.21C78.5004 78.2115 78.5169 78.2123 78.5333 78.2123C78.7042 78.2123 78.8659 78.1289 78.9648 77.9869L80.6566 75.5597L83.5933 75.911C83.7815 75.9334 83.9674 75.853 84.0797 75.7001C84.192 75.5473 84.2136 75.3459 84.136 75.1728L80.4843 67.0225L81.0033 66.8969C81.6592 66.7381 82.1654 66.2318 82.3241 65.5755L82.6367 64.2833C82.678 64.1127 82.7788 63.9618 82.9207 63.8587L83.9941 63.0776C84.5411 62.6795 84.8155 62.017 84.7105 61.3484L84.5041 60.0359C84.4769 59.8627 84.5121 59.6849 84.6033 59.5354L85.2958 58.3991C85.6468 57.823 85.6468 57.1074 85.2958 56.5316ZM67.1847 76.6217L65.844 74.6982C65.7328 74.5387 65.5427 74.4533 65.3498 74.4765L63.0225 74.7549L66.3478 67.333C66.4086 67.3777 66.4631 67.4313 66.5081 67.4932L67.2887 68.5671C67.3629 68.6691 67.4462 68.7616 67.5371 68.844L65.7868 72.7504C65.668 73.0158 65.7866 73.3274 66.0518 73.4463C66.1217 73.4777 66.1948 73.4926 66.2667 73.4926C66.4677 73.4926 66.6598 73.3766 66.7472 73.1812L68.4913 69.2887C68.6629 69.3122 68.8396 69.3119 69.017 69.2839L70.3287 69.0774C70.4073 69.0651 70.4867 69.0662 70.564 69.079L67.1847 76.6217ZM80.4681 74.4765C80.2749 74.4534 80.085 74.5387 79.9739 74.6982L78.6332 76.6217L75.2525 69.0761C75.3234 69.0664 75.3957 69.0664 75.4673 69.0776L76.7785 69.2841C76.9631 69.3132 77.147 69.3122 77.3251 69.2857L79.0705 73.1814C79.1581 73.3768 79.35 73.4927 79.551 73.4927C79.623 73.4927 79.6961 73.4779 79.7659 73.4465C80.0312 73.3276 80.1498 73.0159 80.0309 72.7506L78.274 68.8292C78.3586 68.7505 78.437 68.6634 78.5069 68.5673L79.2874 67.4937C79.3366 67.426 79.3969 67.368 79.4646 67.3211L82.7953 74.755L80.4681 74.4765ZM84.3971 57.8508L83.7046 58.9871C83.4837 59.3496 83.3983 59.7802 83.4643 60.1995L83.6707 61.512C83.714 61.788 83.6007 62.0615 83.3749 62.2258L82.3015 63.007C81.958 63.2571 81.7136 63.6223 81.6137 64.0355L81.3011 65.3277C81.2355 65.5986 81.0267 65.8077 80.7559 65.8733L79.4643 66.1859C79.0513 66.2859 78.6862 66.5304 78.4362 66.8742L77.6557 67.9479C77.4914 68.1739 77.2181 68.2872 76.9421 68.2437L75.6308 68.0372C75.2116 67.9712 74.7811 68.0566 74.4188 68.2776L73.2833 68.9704C73.0457 69.1153 72.7504 69.1153 72.5129 68.9704L71.3772 68.2776C71.0947 68.1052 70.7709 68.0154 70.4433 68.0154C70.3507 68.0154 70.2576 68.0226 70.1653 68.0371L68.8535 68.2436C68.5776 68.2871 68.3042 68.1736 68.14 67.9477L67.3593 66.8738C67.1093 66.5301 66.7442 66.2856 66.3313 66.1856L65.0398 65.8729C64.7689 65.8073 64.5601 65.5983 64.4945 65.3273L64.182 64.0352C64.0821 63.6219 63.8378 63.2565 63.4941 63.0065L62.4211 62.2254C62.1953 62.0611 62.082 61.7875 62.1254 61.5115L62.3318 60.1994C62.3977 59.78 62.3124 59.3494 62.0915 58.9868L61.3991 57.8507C61.2542 57.6129 61.2542 57.3175 61.3991 57.0798L62.0916 55.9435C62.3125 55.581 62.3979 55.1504 62.3319 54.731L62.1255 53.4186C62.0822 53.1426 62.1955 52.869 62.4213 52.7047L63.4947 51.9236C63.8382 51.6735 64.0826 51.3082 64.1825 50.895L64.4951 49.6028C64.5607 49.3319 64.7695 49.1229 65.0403 49.0573L66.3319 48.7446C66.7449 48.6446 67.11 48.4001 67.36 48.0563L68.1405 46.9827C68.3048 46.7568 68.5781 46.6433 68.8541 46.6868L70.1655 46.8933C70.5848 46.9594 71.0152 46.8739 71.3775 46.6529L72.5129 45.9601C72.7506 45.8152 73.0459 45.8152 73.2834 45.9601L74.4191 46.6529C74.7814 46.874 75.2119 46.9595 75.631 46.8934L76.9428 46.6869C77.2186 46.6437 77.492 46.7569 77.6563 46.9828L78.437 48.0567C78.6869 48.4005 79.052 48.6449 79.465 48.7449L80.7565 49.0577C81.0273 49.1233 81.2362 49.3322 81.3018 49.6032L81.6143 50.8954C81.7142 51.3086 81.9585 51.674 82.3022 51.9241L83.3752 52.705C83.6011 52.8694 83.7144 53.143 83.6709 53.419L83.4645 54.7311C83.3986 55.1505 83.4839 55.5811 83.7048 55.9437L84.3972 57.0798C84.542 57.3176 84.542 57.613 84.3971 57.8508Z" fill="black"/>
<path d="M66.9981 56.8195L69.3394 58.9859L68.7179 62.1155C68.6448 62.484 68.7881 62.85 69.0918 63.0707C69.2594 63.1925 69.4538 63.2542 69.6495 63.2542C69.8086 63.2542 69.9684 63.2134 70.1153 63.1312L72.898 61.5728L75.6808 63.1312C76.0085 63.3147 76.4006 63.2916 76.7043 63.0708C77.008 62.85 77.1513 62.4839 77.0781 62.1155L76.4566 58.9859L78.798 56.8195C79.0736 56.5645 79.1728 56.1841 79.0568 55.8269C78.9408 55.4696 78.6372 55.2202 78.2643 55.1759L75.0974 54.8002L73.7617 51.9029C73.6044 51.5618 73.2735 51.3499 72.898 51.3499C72.5226 51.3499 72.1917 51.5618 72.0344 51.9029L70.6987 54.8003L67.5318 55.176C67.1589 55.2203 66.8552 55.4697 66.7393 55.8269C66.6234 56.1841 66.7225 56.5645 66.9981 56.8195ZM71.1152 55.8114C71.2969 55.7899 71.4545 55.6753 71.5312 55.5091L72.898 52.5441L74.2649 55.5091C74.3416 55.6753 74.4991 55.7899 74.6809 55.8114L77.9217 56.1959L75.5256 58.4128C75.3913 58.5371 75.3311 58.7224 75.3667 58.902L76.0027 62.1045L73.155 60.5097C73.0751 60.465 72.9866 60.4426 72.8979 60.4426C72.8093 60.4426 72.7207 60.4649 72.6408 60.5097L69.7931 62.1045L70.4291 58.902C70.4648 58.7223 70.4046 58.5371 70.2702 58.4128L67.8743 56.1959L71.1152 55.8114Z" fill="black"/>
</g>
<defs>
<clipPath id="clip0">
<rect width="33.3969" height="33.4147" fill="white" transform="translate(56.1996 44.7976)"/>
</clipPath>
</defs>
</svg>
