<svg width="258" height="257" viewBox="0 0 258 257" fill="none" xmlns="http://www.w3.org/2000/svg">
<g clip-path="url(#clip0)">
<path d="M152.381 213.814L135.551 196.989L169.211 163.339L169.211 196.989L152.381 213.814Z" fill="#99B4CD"/>
<path fill-rule="evenodd" clip-rule="evenodd" d="M152.38 220.489L128.873 196.989L173.931 151.944L173.931 198.944L152.38 220.489ZM152.38 213.814L135.55 196.989L169.21 163.339L169.21 196.989L152.38 213.814Z" fill="black"/>
<path d="M150.698 193.063L161.357 182.407C166.406 177.36 169.211 170.63 169.211 163.339L135.551 196.989L152.381 213.814L157.991 208.206L150.698 200.915C148.454 198.672 148.454 195.307 150.698 193.063Z" fill="#6C9ABB"/>
<path d="M162.074 242.047L139.634 219.614L180.027 179.233C182.832 176.429 186.759 174.746 191.247 174.746C200.223 174.746 206.955 182.037 206.955 190.45C206.955 194.937 205.272 198.863 202.467 201.667L162.074 242.047Z" fill="#D5E3EF"/>
<path fill-rule="evenodd" clip-rule="evenodd" d="M162.073 248.722L132.957 219.614L176.687 175.895C180.406 172.178 185.546 170.026 191.246 170.026C202.939 170.026 211.675 179.541 211.675 190.45C211.675 196.148 209.523 201.287 205.805 205.004L162.073 248.722ZM162.073 242.047L139.633 219.614L180.026 179.233C182.831 176.429 186.758 174.746 191.246 174.746C200.222 174.746 206.954 182.037 206.954 190.45C206.954 194.937 205.271 198.863 202.466 201.667L162.073 242.047Z" fill="black"/>
<path d="M145.244 180.355L77.923 113.053L132.901 58.0902C159.269 31.7304 192.929 14.3441 229.394 8.17477L239.492 6.49219C240.053 6.49219 240.614 6.49219 241.175 6.49219C246.786 6.49219 251.274 10.9789 251.274 16.5877C251.274 17.1487 251.274 17.7092 251.274 18.2702L250.152 28.9263C243.981 65.381 226.589 99.0321 200.783 124.831L145.244 180.355Z" fill="#D5E3EF"/>
<path fill-rule="evenodd" clip-rule="evenodd" d="M144.843 187.727L69.9108 113.053L128.895 54.0852C156.09 26.8988 190.818 8.9569 228.449 2.59035L228.456 2.58917L239.023 0.828369L241.175 0.828369C249.914 0.828369 256.939 7.85083 256.939 16.5876V18.5674L255.767 29.6959L255.738 29.8712C249.371 67.4787 231.431 102.201 204.789 128.836L144.843 187.727ZM145.244 180.354L77.9229 113.053L132.901 58.0901C159.269 31.7303 192.929 14.344 229.394 8.17471L239.492 6.49213L241.175 6.49213C246.785 6.49213 251.273 10.9788 251.273 16.5876V18.2702L250.152 28.9262C243.981 65.3809 226.589 99.032 200.783 124.831L145.244 180.354Z" fill="black"/>
<path d="M205.832 80.5236L125.608 160.724L145.243 180.354L200.221 125.391C226.589 99.0315 243.419 65.9419 249.59 29.4867L251.834 18.8307C251.834 18.2697 251.834 17.7091 251.834 17.1481C251.834 14.344 250.712 12.1004 249.029 10.4178C240.614 36.217 226.028 60.3331 205.832 80.5236Z" fill="#B0C4D9"/>
<path d="M24.8566 108.902C21.4905 105.537 15.8806 105.537 12.5145 108.902C8.0265 113.389 5.22156 126.849 5.22156 127.41C5.22156 127.971 5.22156 127.971 5.22156 127.971C5.22156 127.971 5.78274 128.532 5.78274 127.971C6.34392 127.971 19.8079 125.167 24.8571 120.119C28.7834 117.315 28.7834 112.267 24.8566 108.902Z" fill="#F79548"/>
<path fill-rule="evenodd" clip-rule="evenodd" d="M6.18338 123.096C7.36529 118.604 9.58002 111.835 12.5141 108.902C15.8802 105.537 21.4901 105.537 24.8562 108.902C28.783 112.267 28.783 117.315 24.8567 120.119C21.5504 123.424 14.636 125.768 10.0989 126.992C9.5122 127.15 8.96529 127.289 8.47106 127.41C6.95041 127.781 5.92853 127.971 5.78233 127.971C5.78233 128.532 5.22115 127.971 5.22115 127.971V127.41C5.22115 127.262 5.415 126.223 5.78233 124.69C5.86944 124.327 5.96631 123.935 6.07266 123.522C6.10849 123.382 6.1454 123.24 6.18338 123.096ZM1.27332 123.251C1.61991 121.833 2.09294 120.074 2.6826 118.207C3.35142 116.089 4.19495 113.756 5.20851 111.6C6.18806 109.517 7.48223 107.258 9.17573 105.565C14.3422 100.399 22.8418 100.357 28.0638 105.436C30.836 107.869 32.5224 111.173 32.5225 114.721C32.5226 118.254 30.8419 121.5 27.92 123.724C24.503 126.968 19.0749 129.123 15.1062 130.423C12.9312 131.135 10.9136 131.677 9.39438 132.043C8.82845 132.179 8.32292 132.293 7.89562 132.383C7.86608 132.399 7.83621 132.414 7.80601 132.429C6.61621 133.024 5.49743 132.984 4.82862 132.873C4.1689 132.763 3.66792 132.541 3.39038 132.403C2.84017 132.128 2.44439 131.807 2.28643 131.676C2.1829 131.589 2.09691 131.512 2.03275 131.452C1.99994 131.422 1.97093 131.394 1.94615 131.37C1.93371 131.358 1.92219 131.347 1.91165 131.337L1.89653 131.322L1.88949 131.315L1.88443 131.31C1.88361 131.309 1.88279 131.308 5.22115 127.971L1.88279 131.308L0.5 129.926L0.5 127.41C0.5 126.926 0.586197 126.443 0.59541 126.391C0.595811 126.389 0.596067 126.387 0.596162 126.387C0.628674 126.191 0.671095 125.963 0.719607 125.719C0.803742 125.295 0.91835 124.76 1.06118 124.142L1.06118 123.251H1.27332Z" fill="black"/>
<path d="M148.976 232.791C145.61 229.426 140 229.426 136.634 232.791C132.146 237.277 129.341 250.738 129.341 251.299C129.341 251.86 129.341 251.86 129.341 251.86C129.341 251.86 129.902 252.421 129.902 251.86C130.463 251.86 143.927 249.055 148.977 244.008C152.903 241.204 152.903 236.156 148.976 232.791Z" fill="#F79548"/>
<path fill-rule="evenodd" clip-rule="evenodd" d="M130.303 246.985C131.485 242.492 133.699 235.724 136.633 232.791C139.999 229.426 145.609 229.426 148.975 232.791C152.902 236.156 152.902 241.204 148.976 244.008C145.669 247.313 138.755 249.656 134.218 250.88C133.631 251.039 133.084 251.178 132.59 251.299C131.07 251.669 130.048 251.86 129.902 251.86C129.902 252.421 129.34 251.86 129.34 251.86V251.299C129.34 251.151 129.534 250.112 129.902 248.579C129.989 248.216 130.086 247.824 130.192 247.41C130.228 247.271 130.265 247.129 130.303 246.985ZM125.393 247.14C125.739 245.722 126.212 243.962 126.802 242.096C127.471 239.978 128.314 237.644 129.328 235.489C130.307 233.405 131.601 231.146 133.295 229.453C138.461 224.288 146.961 224.245 152.183 229.324C154.955 231.758 156.641 235.061 156.642 238.609C156.642 242.142 154.961 245.389 152.039 247.613C148.622 250.857 143.194 253.012 139.225 254.312C137.05 255.024 135.033 255.566 133.514 255.931C132.948 256.068 132.442 256.181 132.015 256.272C131.985 256.287 131.955 256.303 131.925 256.318C130.735 256.913 129.617 256.873 128.948 256.762C128.288 256.652 127.787 256.43 127.51 256.292C126.959 256.017 126.564 255.696 126.406 255.564C126.302 255.478 126.216 255.401 126.152 255.341C126.119 255.311 126.09 255.283 126.065 255.259C126.053 255.247 126.041 255.236 126.031 255.226L126.016 255.211L126.009 255.204L126.004 255.199C126.003 255.198 126.002 255.197 129.34 251.86L126.002 255.197L124.619 253.815V251.299C124.619 250.815 124.705 250.332 124.715 250.28C124.715 250.278 124.715 250.276 124.715 250.276C124.748 250.08 124.79 249.852 124.839 249.608C124.923 249.184 125.038 248.649 125.18 248.031V247.14H125.393Z" fill="black"/>
<path d="M68.1911 189.944C58.0932 179.849 41.2626 179.849 31.1648 189.944C17.1396 203.965 8.72478 244.907 8.1636 246.589C8.1636 247.711 8.1636 248.272 8.72478 248.833C9.84666 249.394 10.969 249.394 12.0909 249.394C13.774 248.833 54.7271 240.981 68.7523 226.399C78.8501 216.304 78.8501 200.039 68.1911 189.944Z" fill="#F79548"/>
<path fill-rule="evenodd" clip-rule="evenodd" d="M8.1633 246.589C8.2247 246.405 8.38009 245.751 8.62655 244.714C10.6329 236.271 18.6737 202.431 31.1645 189.944C41.2623 179.849 58.0929 179.849 68.1908 189.944C78.8498 200.039 78.8498 216.304 68.752 226.399C56.2904 239.355 22.5705 246.998 14.0261 248.935C12.954 249.178 12.2782 249.331 12.0905 249.394C10.9687 249.394 9.84634 249.394 8.72448 248.833C8.1633 248.272 8.1633 247.711 8.1633 246.589ZM72.123 229.704C68.046 233.93 62.285 237.436 56.2579 240.322C50.1506 243.246 43.4383 245.688 37.2159 247.655C30.9803 249.625 25.1551 251.143 20.7959 252.201C18.6141 252.731 16.7947 253.147 15.4783 253.446C15.3315 253.479 15.1922 253.51 15.0601 253.54C14.5924 253.646 14.2149 253.732 13.9181 253.801C13.6257 253.869 13.5072 253.899 13.4907 253.902L12.8569 254.114H12.0906C12.039 254.114 11.9842 254.114 11.9264 254.114C10.8596 254.118 8.75329 254.125 6.61239 253.054L5.92757 252.712L5.38612 252.17C3.38013 250.165 3.42337 247.709 3.43978 246.777C3.44105 246.705 3.44215 246.642 3.44215 246.589L3.44215 245.823L3.68455 245.096C3.67317 245.131 3.71762 244.944 3.85107 244.386C3.92205 244.089 4.01819 243.686 4.1445 243.155C4.45769 241.839 4.89322 240.022 5.44482 237.842C6.54694 233.489 8.11684 227.672 10.1207 221.448C12.1206 215.236 14.5771 208.54 17.4672 202.45C20.3255 196.428 23.7573 190.674 27.8261 186.607C39.7526 174.684 59.5375 174.668 71.4839 186.562C84.0333 198.494 84.0342 217.76 72.123 229.704Z" fill="black"/>
<path d="M66.508 190.505C61.4588 185.457 53.044 185.457 47.9948 190.505C40.7018 197.796 36.7745 217.986 36.7745 218.547C36.7745 219.108 36.7745 219.669 37.3357 219.669C37.8969 220.23 37.8969 220.23 38.4576 220.23C39.5794 220.23 59.7757 215.743 66.508 209.013C71.5572 203.965 71.5572 195.552 66.508 190.505Z" fill="#FCBB76"/>
<path fill-rule="evenodd" clip-rule="evenodd" d="M45.3238 187.835C51.848 181.312 62.6542 181.312 69.1783 187.835C75.7024 194.357 75.7026 205.161 69.1782 211.683C67.0471 213.813 64.0721 215.576 61.0727 217.011C58.0162 218.473 54.6584 219.723 51.5479 220.735C48.4284 221.751 45.4954 222.547 43.2617 223.092C42.1451 223.364 41.1878 223.577 40.4563 223.725C40.0928 223.798 39.7657 223.859 39.4924 223.904L39.4783 223.906C39.3061 223.935 38.8727 224.005 38.4573 224.005C38.4515 224.005 38.4439 224.006 38.4347 224.006C38.3337 224.006 38.0394 224.007 37.7483 223.978C37.327 223.936 36.7862 223.826 36.2069 223.536C35.8311 223.348 35.5358 223.132 35.3311 222.963C35.1154 222.851 34.9016 222.715 34.6933 222.554C33.85 221.898 33.4508 221.08 33.2615 220.513C32.9739 219.651 32.9934 218.734 32.997 218.57C32.9972 218.559 32.9973 218.551 32.9973 218.547C32.9973 218.233 33.0411 217.943 33.0448 217.918L33.045 217.917C33.0597 217.812 33.0777 217.699 33.0962 217.59C33.1338 217.367 33.1861 217.084 33.2509 216.753C33.3814 216.089 33.5722 215.184 33.8219 214.104C34.3209 211.945 35.0643 209.045 36.046 205.919C37.0249 202.801 38.26 199.398 39.7544 196.26C41.227 193.168 43.0603 190.098 45.3238 187.835ZM37.3354 219.669C36.7743 219.669 36.7743 219.108 36.7743 218.547C36.7743 217.986 40.7016 197.796 47.9945 190.505C53.0437 185.457 61.4585 185.457 66.5077 190.505C71.5568 195.552 71.5568 203.965 66.5077 209.013C59.7754 215.743 39.5792 220.23 38.4573 220.23C38.2192 220.23 38.0822 220.23 37.9603 220.187C37.7954 220.128 37.6583 219.991 37.3354 219.669Z" fill="black"/>
<path d="M202.466 190.45L162.074 230.831L145.244 214.005L139.634 219.613L162.074 242.047L202.466 201.666C205.271 198.862 206.954 194.936 206.954 190.449C206.954 188.205 206.393 186.523 205.833 184.841C205.271 187.084 204.15 188.767 202.466 190.45Z" fill="#B0C4D9"/>
<path d="M49.8729 163.529C53.7997 159.603 58.2882 156.798 62.7762 155.677L72.3134 152.312L105.974 185.962L102.608 195.497C100.925 200.544 98.1196 205.031 94.7535 208.396L49.8729 163.529Z" fill="#99B4CD"/>
<path fill-rule="evenodd" clip-rule="evenodd" d="M43.1962 163.529L46.5346 160.191C50.8364 155.891 55.9642 152.571 61.4038 151.156L73.5479 146.871L111.416 184.728L107.073 197.03C105.164 202.733 101.984 207.843 98.0918 211.734L94.7534 215.071L43.1962 163.529ZM102.608 195.497L105.974 185.962L72.3134 152.312L62.7762 155.677C59.5923 156.473 56.4081 158.115 53.4244 160.404C52.2035 161.341 51.0161 162.386 49.8761 163.526C49.875 163.527 49.874 163.528 49.8729 163.529L94.7534 208.396C95.8432 207.307 96.8741 206.1 97.8272 204.794C99.8181 202.067 101.469 198.91 102.608 195.497Z" fill="black"/>
<path d="M72.3125 152.312L63.8972 155.116L82.4104 173.624C86.8984 178.111 88.0203 184.28 86.3373 189.888C85.7761 192.132 84.6542 194.375 82.9711 196.619L94.7521 208.396C98.6789 204.471 101.484 199.983 102.606 195.497L105.972 185.962L72.3125 152.312Z" fill="#6C9ABB"/>
<path d="M45.1672 105.195L61.9973 122.02L95.6574 88.3698L61.9973 88.3698L45.1672 105.195Z" fill="#99B4CD"/>
<path fill-rule="evenodd" clip-rule="evenodd" d="M38.4905 105.195L60.0417 83.65L107.055 83.65L61.9973 128.695L38.4905 105.195ZM61.9973 122.02L45.1672 105.195L61.9973 88.3698L95.6574 88.3698L61.9973 122.02Z" fill="black"/>
<path d="M64.221 109.868C61.9768 107.544 61.9768 104.058 64.221 101.734L77.1243 88.3698H65.9041L48.6651 106.282L65.9041 123.231C69.2702 119.745 69.2702 115.097 65.9041 111.611L64.221 109.868Z" fill="#6C9ABB"/>
<path d="M16.2124 96.2274L38.6523 118.661L79.0448 78.28C81.8497 75.4759 83.5328 71.5497 83.5328 67.063C83.5328 58.6501 76.2398 51.3593 67.8245 51.3593C63.3365 51.3593 59.4092 53.0418 56.6043 55.846L16.2124 96.2274Z" fill="#D5E3EF"/>
<path fill-rule="evenodd" clip-rule="evenodd" d="M9.53589 96.2274L53.2661 52.5086C56.9844 48.7915 62.1246 46.6395 67.8247 46.6395C78.8475 46.6395 88.2541 56.0434 88.2541 67.063C88.2541 72.7615 86.1016 77.9003 82.3833 81.6175L38.6525 125.336L9.53589 96.2274ZM38.6525 118.661L16.2126 96.2274L56.6045 55.846C59.4095 53.0418 63.3368 51.3593 67.8247 51.3593C76.24 51.3593 83.533 58.6501 83.533 67.063C83.533 71.5497 81.8499 75.4759 79.045 78.2801L38.6525 118.661Z" fill="black"/>
<path d="M162.074 118.661C174.467 118.661 184.514 108.617 184.514 96.2275C184.514 83.8377 174.467 73.7939 162.074 73.7939C149.681 73.7939 139.634 83.8377 139.634 96.2275C139.634 108.617 149.681 118.661 162.074 118.661Z" fill="#70B7E5"/>
<path d="M162.074 124.27C146.366 124.27 134.023 111.931 134.023 96.2275C134.023 80.5237 146.366 68.1852 162.074 68.1852C177.782 68.1852 190.125 80.5237 190.125 96.2275C190.125 111.931 177.782 124.27 162.074 124.27ZM162.074 79.4022C152.537 79.4022 145.244 86.693 145.244 96.2275C145.244 105.762 152.537 113.053 162.074 113.053C171.611 113.053 178.904 105.762 178.904 96.2275C178.904 86.693 171.611 79.4022 162.074 79.4022Z" fill="#F04B4D"/>
<path d="M153.098 110.81C151.415 108.006 150.854 105.201 150.854 101.836C150.854 92.3018 158.147 85.0109 167.684 85.0109C171.05 85.0109 173.855 86.1325 176.66 87.2545C173.294 82.7678 168.245 79.4026 162.074 79.4026C152.537 79.4026 145.244 86.6935 145.244 96.2279C145.244 102.397 148.61 107.444 153.098 110.81Z" fill="#4C9CD6"/>
<path d="M145.244 180.355L126.731 198.862C124.487 201.106 121.121 201.106 118.877 198.862L59.41 139.413C57.1657 137.169 57.1657 133.804 59.41 131.561L77.9232 113.053L145.244 180.355Z" fill="#F04D4E"/>
<path fill-rule="evenodd" clip-rule="evenodd" d="M151.92 180.355L130.069 202.2C125.981 206.287 119.626 206.287 115.538 202.2L56.0713 142.75C51.9833 138.663 51.9833 132.31 56.0713 128.223L77.9228 106.378L151.92 180.355ZM145.244 180.355L126.73 198.862C124.486 201.106 121.121 201.106 118.876 198.862L59.4096 139.413C57.1654 137.169 57.1654 133.804 59.4096 131.561L77.9228 113.053L145.244 180.355Z" fill="black"/>
<path d="M103.729 166.894L68.3859 131.561C66.1417 129.317 62.2149 129.317 59.41 131.561C57.1657 133.804 57.1657 137.169 59.41 139.413L118.876 198.862C121.12 201.105 124.486 201.105 126.73 198.862L145.244 180.354L125.608 160.725L119.437 166.894C114.949 171.381 108.217 171.381 103.729 166.894Z" fill="#DB343F"/>
<path d="M162.437 242.247L179.098 225.591L156.487 202.987L139.826 219.642L162.437 242.247Z" fill="#F04D4E"/>
<path d="M173.294 219.613L165.439 227.465C162.073 230.83 157.585 230.83 154.219 227.465L142.999 216.248L139.633 219.613L162.073 242.047L178.903 225.222L173.294 219.613Z" fill="#DB343F"/>
<path d="M100.363 110.249C99.8022 110.249 98.6803 110.249 98.1191 109.688C96.9972 108.566 96.9972 106.883 98.1191 105.762L126.17 77.7195C127.292 76.598 128.975 76.598 130.096 77.7195C131.218 78.8411 131.218 80.5237 130.096 81.6452L102.046 109.688C102.046 110.249 100.924 110.249 100.363 110.249Z" fill="#ECF0F9"/>
<path d="M139.633 70.9891C139.072 70.9891 137.95 70.9891 137.389 70.4281C136.267 69.3065 136.267 67.624 137.389 66.5024L148.609 55.2855C149.731 54.1639 151.414 54.1639 152.536 55.2855C153.658 56.407 153.658 58.0896 152.536 59.2111L141.316 70.4281C141.316 70.9891 140.194 70.9891 139.633 70.9891Z" fill="#ECF0F9"/>
<path d="M241.736 6.49219C241.175 6.49219 240.614 6.49219 240.053 6.49219L229.394 8.17477C212.003 10.9789 195.734 16.5877 180.026 24.4391C180.026 24.4391 190.124 34.534 206.954 51.3598C223.785 68.1856 233.883 78.2806 233.883 78.2806C241.737 62.5769 246.786 46.3126 250.152 28.9263L251.835 18.8313C251.835 18.2702 251.835 17.7097 251.835 17.1487C251.835 10.9789 247.347 6.49219 241.736 6.49219Z" fill="#F04D4E"/>
<path fill-rule="evenodd" clip-rule="evenodd" d="M239.609 0.828369L241.736 0.828369C250.675 0.828369 257.5 8.05426 257.5 17.1486V19.3L255.728 29.93L255.714 30.0023C252.27 47.7896 247.078 64.5622 238.95 80.8135L235.435 87.8419L229.877 82.2854L233.883 78.2806C234.782 76.4815 235.645 74.6752 236.473 72.8606C242.872 58.8356 247.171 44.3208 250.152 28.9262L251.835 18.8312V17.1486C251.835 10.9789 247.347 6.49213 241.736 6.49213L240.053 6.49213L229.394 8.17471C213.99 10.6584 199.467 15.3423 185.434 21.8359C183.623 22.6738 181.821 23.5417 180.026 24.439L176.02 28.4439L170.461 22.8873L177.492 19.3731C193.644 11.3 210.461 5.49057 228.492 2.58321L228.501 2.58172L239.609 0.828369ZM180.026 24.439C176.02 28.4439 176.02 28.4438 176.02 28.4439L176.02 28.4443L229.875 82.2836L229.876 82.285L229.877 82.2854C229.877 82.2855 229.877 82.2854 233.883 78.2806L180.026 24.439Z" fill="black"/>
<path d="M201.344 29.4869C200.222 29.4869 199.1 28.9259 198.539 27.8044C197.978 26.1218 198.539 25.0002 200.222 24.4392C211.443 19.9525 222.662 17.1483 234.444 14.9047C236.127 14.9047 237.249 15.4657 237.81 17.1483C237.81 18.8309 237.249 19.9525 235.566 20.5135C224.345 22.1961 213.126 25.5612 202.466 29.4869C201.905 29.4869 201.905 29.4869 201.344 29.4869Z" fill="#F26A56"/>
<path d="M162.073 68.7462V68.1852C146.365 68.1852 134.023 80.5238 134.023 96.2275H134.584C137.389 96.2275 139.633 94.5449 140.194 91.7408C140.755 87.8151 142.999 84.4499 145.243 81.6458C148.609 78.2807 152.536 75.4765 157.585 74.355C160.39 73.7939 162.073 71.5503 162.073 68.7462Z" fill="#F26A56"/>
<path d="M162.074 123.709V124.27C177.782 124.27 190.125 111.931 190.125 96.2274H189.563C186.758 96.2274 184.514 97.91 183.953 100.714C183.392 104.64 181.149 108.005 178.904 110.809C175.538 114.174 171.611 116.978 166.562 118.1C163.757 118.661 162.074 120.905 162.074 123.709Z" fill="#DB343F"/>
<path d="M173.294 199.984C172.733 199.984 171.611 199.984 171.05 199.423C169.928 198.301 169.928 196.619 171.05 195.497L182.27 184.28C183.392 183.159 185.075 183.159 186.197 184.28C187.318 185.402 187.318 187.084 186.197 188.206L174.976 199.423C174.976 199.984 173.854 199.984 173.294 199.984Z" fill="#ECF0F9"/>
<path d="M79.0451 67.0636L38.6527 107.445L21.8226 90.6192L16.2128 96.2275L38.6527 118.661L79.0451 78.2801C81.85 75.476 83.5331 71.5498 83.5331 67.0631C83.5331 64.8195 82.9719 63.1374 82.4112 61.4548C81.85 63.6984 80.7281 65.381 79.0451 67.0636Z" fill="#B0C4D9"/>
<path d="M49.8729 76.598C49.3117 76.598 48.1898 76.598 47.6286 76.037C46.5068 74.9154 46.5068 73.2328 47.6286 72.1113L58.8489 60.8942C59.9708 59.7727 61.6538 59.7727 62.7757 60.8942C63.8976 62.0158 63.8976 63.6984 62.7757 64.8199L51.5555 76.037C51.5555 76.598 50.4336 76.598 49.8729 76.598Z" fill="#ECF0F9"/>
<path d="M39.0009 118.861L55.6615 102.206L33.0505 79.601L16.3899 96.2569L39.0009 118.861Z" fill="#F04D4E"/>
<path d="M49.873 96.2274L42.0189 104.079C38.6528 107.444 34.1648 107.444 30.7987 104.079L19.5784 92.8622L16.2123 96.2274L38.6523 118.661L55.4824 101.836L49.873 96.2274Z" fill="#DB343F"/>
<path d="M219.857 64.2593L233.883 78.2804C241.737 62.5767 246.786 46.3124 250.152 28.9261L251.835 18.8311C251.835 18.2701 251.835 17.7095 251.835 17.1485C251.835 14.3444 250.713 12.1008 249.03 10.4182C242.859 29.4866 232.761 47.9945 219.857 64.2593Z" fill="#DB343F"/>
<path d="M191.269 97.3724C191.269 113.492 178.198 126.56 162.074 126.56C145.95 126.56 132.878 113.492 132.878 97.3724C132.878 81.2527 145.95 68.1852 162.074 68.1852C178.198 68.1852 191.269 81.2527 191.269 97.3724Z" fill="white"/>
<path fill-rule="evenodd" clip-rule="evenodd" d="M195.827 97.3724C195.827 116.008 180.715 131.116 162.074 131.116C143.432 131.116 128.321 116.008 128.321 97.3724C128.321 78.7364 143.432 63.629 162.074 63.629C180.715 63.629 195.827 78.7364 195.827 97.3724ZM162.074 126.56C178.198 126.56 191.269 113.492 191.269 97.3724C191.269 81.2527 178.198 68.1851 162.074 68.1851C145.949 68.1851 132.878 81.2527 132.878 97.3724C132.878 113.492 145.949 126.56 162.074 126.56Z" fill="black"/>
<path fill-rule="evenodd" clip-rule="evenodd" d="M161.296 112.513C156.077 112.194 151.078 109.002 148.649 104.338C146.394 100.009 146.429 94.5717 148.734 90.2763C151.314 85.4681 156.432 82.5361 162.097 82.2839C162.097 82.2839 163.504 82.1938 164.444 81.6604C167.231 80.0768 167.648 75.4027 164.652 73.4941C163.845 72.9804 162.882 72.7425 161.923 72.7454C152.459 72.8361 143.307 78.7485 139.461 87.5201C136.228 94.8928 136.9 103.834 141.292 110.671C144.788 116.111 150.489 120.09 156.813 121.466C165.467 123.349 175.053 120.149 180.838 113.401C186.574 106.711 188.326 96.8206 185.114 88.5179C183.272 83.7581 180.009 79.4173 175.643 76.8059C175.415 76.6695 175.176 76.5572 174.93 76.4675C179.322 80.2281 182.107 85.808 182.107 92.0317C182.107 103.344 172.908 112.528 161.577 112.528C161.484 112.528 161.475 112.524 161.296 112.513Z" fill="#1292EE"/>
</g>
<defs>
<clipPath id="clip0">
<rect width="257" height="256" fill="white" transform="translate(0.5 0.828369)"/>
</clipPath>
</defs>
</svg>
