<svg width="92" height="92" viewBox="0 0 92 92" fill="none" xmlns="http://www.w3.org/2000/svg">
<path d="M40.9201 84.8122C60.5429 84.8122 76.4504 68.9168 76.4504 49.3089C76.4504 29.7009 60.5429 13.8055 40.9201 13.8055C21.2972 13.8055 5.38977 29.7009 5.38977 49.3089C5.38977 68.9168 21.2972 84.8122 40.9201 84.8122Z" fill="#89C9F7"/>
<path d="M77.1497 49.1922C77.0845 29.2745 60.8577 13.0908 40.92 13.0908C40.9176 13.0908 40.9151 13.0908 40.9127 13.0908C40.906 13.0908 40.899 13.0912 40.8923 13.0912C20.9669 13.1062 4.75521 29.284 4.69001 49.1922C4.68966 49.2321 4.68861 49.2721 4.68861 49.3121C4.68861 49.3229 4.68896 49.3342 4.68896 49.345C4.68931 49.5673 4.69316 49.7888 4.69737 50.01C5.07105 69.6616 21.1755 85.5333 40.92 85.5333H40.9281H40.9453C60.6782 85.5196 76.769 69.6536 77.1427 50.0104C77.1469 49.7892 77.1507 49.5676 77.1511 49.3454C77.1511 49.3342 77.1514 49.3233 77.1514 49.3124C77.1511 49.2721 77.15 49.2321 77.1497 49.1922ZM75.7401 48.6078H61.5588C61.4904 42.2552 60.4994 36.1704 58.6997 30.8365C61.3264 29.2868 63.7742 27.3928 65.9872 25.1738C71.8729 31.2807 75.5585 39.5203 75.7401 48.6078V48.6078ZM60.1601 50.01C60.0945 56.01 59.1849 61.6411 57.6383 66.5337C47.1727 61.3432 34.7171 61.5121 24.3777 67.0823C22.7239 62.0646 21.7476 56.2354 21.6796 50.01H60.1601ZM21.6799 48.6078C21.7465 42.591 22.6625 36.9455 24.2175 32.0442C29.1648 34.5053 34.6515 35.8087 40.3399 35.8087C46.4303 35.8087 52.2665 34.329 57.4598 31.5376C59.1144 36.5546 60.0914 42.3832 60.1605 48.6078H21.6799ZM64.9955 24.1853C62.9329 26.2531 60.6593 28.029 58.2216 29.4925C57.4756 27.4885 56.6136 25.5994 55.636 23.8589C53.3837 19.8494 50.7255 16.963 47.8889 15.1937C54.4476 16.5307 60.3364 19.7214 64.9955 24.1853ZM40.92 14.5067C47.6302 14.5067 53.5484 20.7503 56.9936 30.1936C51.9521 32.9454 46.2711 34.4065 40.3395 34.4065C34.8044 34.4065 29.4677 33.1224 24.6662 30.6998C28.0827 20.9746 34.091 14.5067 40.92 14.5067ZM33.9578 15.192C31.1152 16.9633 28.4542 19.8529 26.2037 23.8589C25.1377 25.7564 24.2109 27.832 23.4207 30.0397C20.8463 28.6056 18.4402 26.8354 16.2601 24.7486C21.0076 19.9854 27.1215 16.5844 33.9578 15.192V15.192ZM15.2912 25.7617C17.6217 27.9925 20.1989 29.8771 22.9608 31.3904C21.2768 36.5907 20.3472 42.4733 20.2809 48.6078H6.09955C6.27518 39.8105 9.73156 31.8047 15.2912 25.7617V25.7617ZM6.09955 50.01H20.2809C20.3489 56.3626 21.3392 62.4477 23.1386 67.7827C20.5386 69.3195 18.0872 71.2079 15.8549 73.4528C9.96643 67.3442 6.27939 59.1011 6.09955 50.01V50.01ZM16.8491 74.4441C17.1439 74.0936 19.8627 71.3811 23.6142 69.12C24.3613 71.1283 25.2247 73.0213 26.2041 74.7652C28.4563 78.7748 31.1149 81.6612 33.9515 83.4304C27.3949 82.0941 21.5068 78.9062 16.8491 74.4441V74.4441ZM40.92 84.1213C34.206 84.1213 28.2846 77.8704 24.8401 68.4179C29.8943 65.6486 35.5928 64.1777 41.544 64.1777C47.07 64.1777 52.3983 65.4575 57.1934 67.8724C53.7802 77.6288 47.762 84.1213 40.92 84.1213ZM47.8822 83.4318C50.7248 81.6605 53.3858 78.7713 55.636 74.7652C56.7104 72.8523 57.6442 70.7588 58.4382 68.5308C61.0214 69.967 63.4349 71.7414 65.6213 73.8338C60.8682 78.6191 54.7386 82.0356 47.8822 83.4318ZM66.5888 72.8201C64.2289 70.5622 61.6373 68.6861 58.8936 67.1878C60.5688 61.9969 61.4936 56.1288 61.5588 50.01H75.7401C75.5666 58.7887 72.1267 66.7808 66.5888 72.8201V72.8201Z" fill="#E0EBFC"/>
<path d="M40.92 86.2344C20.5554 86.2344 3.98754 69.6711 3.98754 49.3121C3.98754 28.9531 20.5554 12.3898 40.92 12.3898C61.2847 12.3898 77.8522 28.9531 77.8522 49.3121C77.8522 69.6711 61.2847 86.2344 40.92 86.2344V86.2344ZM40.92 13.792C21.3287 13.792 5.38973 29.7264 5.38973 49.3121C5.38973 68.8978 21.3287 84.8323 40.92 84.8323C60.5114 84.8323 76.45 68.8978 76.45 49.3121C76.45 29.7264 60.5114 13.792 40.92 13.792V13.792Z" fill="black"/>
<path d="M74.0169 65.6777C73.5892 66.539 73.1282 67.3803 72.6368 68.202C76.5987 78.9711 69.7669 79.3059 59.0969 73.4367C53.064 70.1177 46.2501 65.0029 39.5368 58.7933L36.282 49.8509C36.0776 49.289 35.4733 48.9388 34.9015 49.1137C34.2916 49.3005 33.9698 49.9564 34.185 50.5485L35.9283 55.3376C29.0032 48.488 21.4798 39.6581 16.7853 31.1254C10.9396 20.4979 11.2305 13.6079 22.0456 17.594C22.8645 17.105 23.7019 16.6454 24.5597 16.2195C20.6024 14.5586 15.2909 12.9149 12.387 15.8202C9.62608 18.5815 10.4776 24.2417 14.8499 32.19C19.6535 40.9218 27.2789 49.8803 34.3824 56.9155L29.5697 55.1634C28.9969 54.9552 28.3628 55.2507 28.1539 55.8238C27.9453 56.397 28.2408 57.0308 28.8139 57.2397C28.9664 57.2951 38.1953 60.6575 38.3498 60.7056C45.094 66.9064 51.9423 72.0219 58.032 75.3724C73.7477 84.0172 79.247 77.8701 74.0169 65.6777V65.6777Z" fill="black"/>
<path d="M11.3527 69.232C11.6508 70.1463 11.9847 71.0456 12.3517 71.9299C6.86851 82.0098 13.5793 83.3328 24.9882 79.0747C31.439 76.6666 38.9233 72.5951 46.4669 67.4258L50.9854 59.0506C51.2691 58.5243 51.9179 58.2655 52.4582 58.5216C53.0346 58.795 53.2578 59.4907 52.9588 60.0452L50.5388 64.5306C58.3849 58.7587 67.1104 51.1145 72.9938 43.3537C80.3203 33.6874 81.0326 26.8281 69.7535 29.202C69.0143 28.5993 68.2524 28.023 67.4655 27.4771C71.6221 26.4083 77.1159 25.553 79.5673 28.8491C81.8981 31.9819 80.234 37.4586 74.7541 44.688C68.7339 52.6299 59.8888 60.3867 51.8393 66.3161L56.8553 65.2812C57.4523 65.1584 58.0368 65.5428 58.1603 66.1402C58.2835 66.7376 57.8991 67.3217 57.3017 67.4452C57.1428 67.4779 47.5236 69.465 47.3637 69.4901C39.7908 74.6462 32.2725 78.7134 25.7609 81.1445C8.95678 87.4163 4.40801 80.536 11.3527 69.232Z" fill="black"/>
<path d="M82.5255 0.701172H55.1566C52.5131 0.701172 50.3702 2.84406 50.3702 5.48753V25.903C50.3702 28.5465 52.5131 30.6894 55.1566 30.6894H62.2688L62.5496 37.8153C62.584 38.6874 63.5687 39.1771 64.2848 38.6783L75.714 30.7125L75.6674 30.6894H82.5251C85.1686 30.6894 87.3115 28.5465 87.3115 25.903V5.48753C87.3119 2.84406 85.169 0.701172 82.5255 0.701172V0.701172Z" fill="#1F9459"/>
<path d="M61.3416 12.2527C60.9851 12.6032 61.0395 12.6642 60.2542 16.1634C59.3632 12.8752 59.3663 12.0031 58.1271 12.0031C56.841 12.0031 56.835 12.9846 55.9832 16.1564C55.2737 12.9927 55.26 12.8128 55.0623 12.4458C54.7727 11.9084 53.9283 11.8538 53.4743 12.2965C53.0596 12.7 53.1452 13.2006 53.2889 13.7611C54.6942 19.4462 54.6339 19.3242 54.8446 19.6832C55.2698 20.4085 56.2244 20.352 56.6513 19.9927C57.0835 19.6289 57.0204 19.6334 58.125 15.5881C58.926 18.559 59.0606 19.0946 59.2019 19.4701C59.5346 20.3538 60.643 20.4271 61.1432 19.9847C61.5895 19.5893 61.4899 19.6674 62.9506 13.76C63.0891 13.1914 63.1855 12.6961 62.7596 12.2916C62.333 11.886 61.6631 11.9361 61.3416 12.2527V12.2527Z" fill="white"/>
<path d="M71.6 12.2527C71.2494 12.598 71.3108 12.6064 70.5129 16.1634C69.8521 13.7246 69.7098 13.1588 69.5798 12.8083C69.2345 11.879 68.099 11.8341 67.582 12.2558C67.1077 12.6414 67.134 12.8321 66.2415 16.1564C65.5267 12.9699 65.518 12.8125 65.3206 12.4458C65.0297 11.906 64.1845 11.8562 63.733 12.2961C63.3186 12.6986 63.4035 13.1977 63.5472 13.7611C64.8446 19.0091 64.7822 18.7679 64.8877 19.1549C65.3112 20.7121 66.9265 20.439 67.2973 19.461C67.4306 19.1101 67.5434 18.6635 68.383 15.5878C69.1808 18.546 69.3197 19.0974 69.4599 19.4697C69.6099 19.8676 69.9955 20.2465 70.6139 20.2465C71.6108 20.2465 71.7924 19.4792 71.9943 18.6719C73.3569 13.1595 73.6068 12.8521 73.0172 12.2909C72.5923 11.8874 71.9235 11.9347 71.6 12.2527V12.2527Z" fill="white"/>
<path d="M83.2766 12.2912C83.0786 12.103 82.8255 12.0034 82.545 12.0034C81.4622 12.0034 81.5099 12.8724 80.7716 16.1637C80.1136 13.7358 79.9689 13.1595 79.8385 12.809C79.4441 11.745 77.8635 11.7079 77.4278 12.8121C77.2886 13.1627 77.1999 13.5514 76.5002 16.1567C75.7865 12.9751 75.777 12.8132 75.5793 12.4461C75.2898 11.9088 74.4453 11.8541 73.9914 12.2968C73.5767 12.6999 73.6625 13.1998 73.8059 13.7614C75.1909 19.3642 75.125 20.2468 76.4 20.2468C77.0316 20.2468 77.4088 19.8493 77.5561 19.4609C77.6893 19.1093 77.7979 18.6778 78.6417 15.5881C79.6197 19.2159 79.6379 20.2468 80.8726 20.2468C82.1692 20.2468 82.1026 19.2793 83.467 13.76C83.6061 13.1911 83.7025 12.6957 83.2766 12.2912V12.2912Z" fill="white"/>
<path d="M63.6533 39.5777C63.3792 39.5777 63.1044 39.5153 62.8499 39.3888C62.2585 39.095 61.875 38.503 61.8491 37.8429L61.5946 31.3907H55.1564C52.1305 31.3907 49.669 28.9292 49.669 25.9033V5.48745C49.669 2.46154 52.1305 0 55.1564 0H82.525C85.5509 0 88.0124 2.46154 88.0124 5.48745V25.9029C88.0124 28.9288 85.5509 31.3904 82.525 31.3904H75.967L64.6853 39.2531C64.3772 39.4684 64.0165 39.5777 63.6533 39.5777V39.5777ZM55.1564 1.40219C52.9038 1.40219 51.0712 3.23519 51.0712 5.48745V25.9029C51.0712 28.1555 52.9042 29.9882 55.1564 29.9882H62.2687C62.6451 29.9882 62.9543 30.2858 62.969 30.6616L63.2498 37.7871C63.2582 38.0031 63.4093 38.1012 63.4742 38.1328C63.5383 38.165 63.7076 38.2253 63.884 38.1026L75.0888 30.2935C75.2168 30.1067 75.431 29.9882 75.6676 29.9882H82.5253C84.7779 29.9882 86.6106 28.1552 86.6106 25.9029V5.48745C86.6106 3.23519 84.7776 1.40219 82.525 1.40219H55.1564Z" fill="black"/>
<path d="M84.3658 18.0479C82.9233 18.0479 82.8939 20.2461 84.3805 20.2461C85.8416 20.2465 85.8269 18.0479 84.3658 18.0479Z" fill="white"/>
</svg>
