<svg width="114" height="93" viewBox="0 0 114 93" fill="none" xmlns="http://www.w3.org/2000/svg">
<path d="M80.3572 47.9428C80.8883 48.4375 81.0275 49.227 80.6976 49.8735L78.2639 54.6389C77.9374 55.2788 78.0699 56.0559 78.5864 56.5531C78.5921 56.5596 78.5989 56.5644 78.6046 56.571L81.029 58.8262C82.012 59.7422 81.5259 61.3882 80.2023 61.6216L13.6835 73.3507C12.3601 73.5841 11.3402 72.2036 11.9506 71.0066L13.4575 68.0582C13.4606 68.0502 13.4654 68.0433 13.4686 68.0351C13.7839 67.3912 13.6425 66.6157 13.1168 66.1261L9.19982 62.4805C8.66875 61.9858 8.52954 61.1963 8.8594 60.5498L11.2929 55.783C11.6228 55.1365 11.4835 54.347 10.9525 53.8523L7.03562 50.2067C6.50429 49.7106 6.36533 48.9225 6.69494 48.2746L9.12844 43.5077C9.4583 42.8612 9.31935 42.0732 8.78801 41.5771L6.36335 39.3204C5.38029 38.4044 5.86639 36.7584 7.19002 36.525L73.7088 24.7959C75.0323 24.5626 76.0522 25.943 75.4417 27.14L73.9351 30.0899C73.6055 30.7378 73.7444 31.5259 74.2755 32.0205L78.1926 35.6676C78.7239 36.1637 78.8629 36.9518 78.5333 37.5997L76.0995 42.3651C75.7697 43.0116 75.9089 43.8011 76.44 44.2958L80.3572 47.9428Z" fill="#FFCE79"/>
<path d="M80.2022 61.6216L13.6834 73.3507C12.3599 73.5841 11.34 72.2036 11.9505 71.0066L13.4574 68.0582C13.4604 68.0502 13.4652 68.0433 13.4684 68.0351L78.5862 56.5531C78.5918 56.5596 78.5986 56.5644 78.6043 56.571L81.0287 58.8263C82.0118 59.7423 81.5257 61.3883 80.2022 61.6216Z" fill="black" fill-opacity="0.2" style="mix-blend-mode:darken"/>
<path d="M102.98 43.9539C103.511 44.4485 103.651 45.238 103.321 45.8845L100.887 50.6499C100.557 51.2978 100.696 52.0859 101.228 52.582L103.652 54.8373C104.635 55.7533 104.149 57.3993 102.825 57.6327L45.8483 67.6793L39.3549 30.8535L96.3321 20.8069C97.6556 20.5736 98.6755 21.954 98.065 23.151L96.5584 26.1009C96.2288 26.7488 96.3678 27.5369 96.8988 28.0315L100.816 31.6786C101.347 32.1747 101.486 32.9628 101.157 33.6107L98.7229 38.3761C98.393 39.0226 98.5322 39.8121 99.0633 40.3068L102.98 43.9539Z" fill="#FFB940"/>
<path d="M102.844 54.9796L100.42 52.7244C100.414 52.7179 100.407 52.7131 100.402 52.7065L44.9329 62.4872L45.8484 67.6792L102.018 57.775C103.341 57.5417 103.827 55.8957 102.844 54.9796Z" fill="black" fill-opacity="0.2" style="mix-blend-mode:darken"/>
<path fill-rule="evenodd" clip-rule="evenodd" d="M102.702 43.0707L102.929 43.2824C103.834 44.1253 104.054 45.4526 103.502 46.5328C102.46 48.6267 101.844 49.7988 101.486 50.4813C101.01 51.3877 100.987 51.4305 101.021 51.6223C101.055 51.815 101.127 51.8796 101.644 52.3454C102.016 52.68 102.618 53.2217 103.601 54.1667C104.043 54.5782 104.331 55.1045 104.434 55.6887C104.697 57.1797 103.699 58.6064 102.21 58.8689L33.0206 71.0689C32.4162 71.1755 31.8398 70.7719 31.7332 70.1675C31.6267 69.5631 32.0302 68.9867 32.6346 68.8801L45.6553 66.5842L47.8438 66.198L101.824 56.6799C102.242 56.6061 102.403 56.0887 102.086 55.7935C101.468 55.1664 100.941 54.7012 100.502 54.3132C99.5468 53.4695 99.0051 52.991 98.8318 52.0082C98.729 51.4254 98.8206 50.8141 99.0898 50.287L101.522 45.5219C101.714 45.1468 101.416 44.8959 101.262 44.7672C101.227 44.7373 101.199 44.714 101.187 44.6972C100.738 44.279 100.713 43.5758 101.131 43.1266C101.55 42.6776 102.253 42.6524 102.702 43.0707ZM95.717 22.0443L41.7367 31.5625L39.548 31.9484L34.1517 32.9C33.5473 33.0065 32.9709 32.6029 32.8644 31.9985C32.7578 31.3941 33.1614 30.8177 33.7658 30.7112L95.3312 19.8555C97.5483 19.4646 99.2744 21.7853 98.2461 23.7983C97.6462 25.0215 97.2662 25.7365 97.0312 26.1786C96.7036 26.7949 96.6581 26.8806 96.692 27.0729C96.7265 27.2687 96.7743 27.3121 97.5362 28.0044C98.1092 28.525 99.0861 29.4126 100.765 31.0079C101.643 31.8261 101.905 33.1474 101.338 34.258C99.2944 38.3629 98.7187 39.0608 98.8812 39.4527C98.9515 39.6225 99.1603 39.7348 99.4483 40.0417C99.8974 40.4599 99.9226 41.1631 99.5042 41.6123C99.0859 42.0614 98.3827 42.0865 97.9335 41.6682L97.4983 41.2629C96.5916 40.4184 96.375 39.0903 96.9254 38.0128L99.3582 33.2474C99.5466 32.8787 99.4042 32.7486 97.9744 31.4427C97.3585 30.8803 96.5038 30.0996 95.3337 28.9878C94.4291 28.1454 94.2096 26.8174 94.7607 25.738C95.3437 24.5689 95.7158 23.8568 95.9504 23.4078C96.3338 22.6739 96.35 22.6431 96.3193 22.4693C96.2816 22.2554 96.0698 21.9821 95.717 22.0443Z" fill="black"/>
<path d="M28.2565 69.6521L13.4904 72.2557C13.0708 72.3297 12.7448 71.8968 12.9409 71.5124C14.1033 68.9738 14.9573 68.2781 14.7041 66.8424C14.5998 66.2511 14.3125 65.7226 13.8732 65.3132C9.97343 61.608 9.86144 61.7251 9.80044 61.3791C9.74112 61.0427 9.85294 61.1683 12.282 56.2889C12.8321 55.2113 12.6158 53.8833 11.7089 53.0388C7.8091 49.3335 7.69711 49.4505 7.63613 49.1047C7.57679 48.7682 7.69306 48.8851 10.1176 44.0138C10.6855 42.9016 10.4209 41.5797 9.54468 40.7639C7.04697 38.3943 7.01152 38.5057 6.96213 38.2256C6.9244 38.0116 7.02997 37.6824 7.38262 37.6202L29.7734 33.6721C30.3778 33.5655 30.7813 32.9891 30.6748 32.3847C30.5682 31.7803 29.9918 31.3767 29.3874 31.4833L6.99696 35.4313C4.78002 35.8223 3.952 38.593 5.60617 40.1332C7.95484 42.391 8.12818 42.3468 8.1867 42.6787C8.24604 43.0153 8.13134 42.8954 5.70513 47.7698C5.15534 48.8474 5.37185 50.1755 6.27832 51.0197C10.1717 54.7187 10.571 54.7526 10.3024 55.2786L7.86972 60.0441C7.31964 61.1218 7.53599 62.4498 8.4428 63.2942C12.3316 66.9889 12.7359 67.026 12.4667 67.553C11.3126 70.0705 10.4486 70.7947 10.6993 72.2169C10.9622 73.7078 12.3874 74.7073 13.8764 74.4448L28.6425 71.8411C29.2469 71.7346 29.6505 71.1582 29.544 70.5538C29.4374 69.9492 28.8609 69.5455 28.2565 69.6521Z" fill="black"/>
<ellipse cx="27.4396" cy="51.4486" rx="9.33719" ry="9.33719" transform="rotate(-10 27.4396 51.4486)" fill="white"/>
<path fill-rule="evenodd" clip-rule="evenodd" d="M28.0357 56.2618C26.3741 56.4511 24.6226 55.7232 23.5982 54.3887C22.6475 53.1502 22.3566 51.4352 22.8439 49.9539C23.3894 48.2959 24.8384 47.0879 26.6086 46.6939C26.6086 46.6939 27.0469 46.5873 27.3132 46.3671C28.1032 45.7134 27.9747 44.2177 26.925 43.7828C26.6425 43.6657 26.3261 43.6442 26.0239 43.6985C23.0483 44.2526 20.4944 46.6235 19.7701 49.6006C19.1615 52.1029 19.8699 54.8824 21.6331 56.7924C23.0363 58.3123 25.0528 59.2492 27.121 59.3313C29.9513 59.4439 32.7927 57.9034 34.2399 55.4565C35.6748 53.0301 35.6773 49.8169 34.2044 47.3796C33.3599 45.9823 32.0911 44.796 30.5709 44.2157C30.4915 44.1854 30.41 44.1633 30.3274 44.1487C31.9197 45.0896 33.1067 46.6928 33.4524 48.6536C34.0808 52.2176 31.6938 55.6218 28.125 56.251C28.0958 56.2562 28.0926 56.2553 28.0357 56.2618V56.2618Z" fill="#1292EE"/>
<line x1="40.2906" y1="31.9304" x2="45.9304" y2="66.7094" stroke="black" stroke-width="2.25" stroke-linecap="square" stroke-dasharray="4 4"/>
<path d="M59.1528 54.7689C57.5697 55.048 56.3944 54.8223 55.6268 54.0918C54.8706 53.3451 54.3457 52.1389 54.052 50.4732L56.8396 49.9817C57.0071 50.9316 57.2366 51.6292 57.528 52.0746C57.8195 52.52 58.268 52.6893 58.8737 52.5825C59.328 52.5024 59.6398 52.2984 59.8091 51.9705C59.9759 51.6288 60.0432 51.2053 60.0109 50.7C59.9899 50.1785 59.9005 49.4704 59.7428 48.5756C59.5486 47.4743 59.3021 46.6803 59.0034 46.1936C58.7047 45.7069 58.2318 45.5206 57.5848 45.6347C57.1993 45.7026 56.892 45.8917 56.6628 46.2018C56.4474 46.5094 56.3178 46.9013 56.274 47.3775L53.8167 47.8107L52.3398 38.4689L59.8561 37.1435L60.3076 39.704L55.1866 40.607L55.7314 44.6627C55.9193 44.3599 56.2202 44.0939 56.634 43.8648C57.0454 43.622 57.5126 43.4544 58.0357 43.3622C59.2196 43.1534 60.1739 43.4536 60.8985 44.2626C61.6344 45.0554 62.1468 46.271 62.4357 47.9091C62.6614 49.1894 62.7281 50.2918 62.6356 51.2166C62.557 52.1389 62.2459 52.9105 61.7025 53.5315C61.159 54.1525 60.3092 54.565 59.1528 54.7689Z" fill="black"/>
<path d="M69.7079 52.9077C68.29 53.1577 67.1317 52.9078 66.233 52.1578C65.3342 51.4079 64.755 50.2964 64.4953 48.8234L63.1882 41.4104C62.9187 39.8823 63.0655 38.6216 63.6284 37.6281C64.1913 36.6346 65.2093 36.008 66.6822 35.7483C68.1277 35.4934 69.2929 35.7422 70.1778 36.4946C71.0603 37.2332 71.6351 38.3596 71.9021 39.8739L73.2092 47.2869C73.469 48.7599 73.3048 50.0024 72.7168 51.0145C72.1288 52.0266 71.1258 52.6577 69.7079 52.9077ZM69.2746 50.4505C70.252 50.2781 70.5975 49.3798 70.3111 47.7554L69.0185 40.4249C68.8899 39.6953 68.6822 39.1216 68.3957 38.7037C68.1204 38.2696 67.6937 38.1036 67.1155 38.2055C66.5236 38.3099 66.1725 38.6131 66.0623 39.1151C65.9497 39.6034 65.9577 40.2123 66.0863 40.9419L67.3789 48.2724C67.4978 48.9469 67.703 49.5069 67.9945 49.9523C68.2973 50.3815 68.724 50.5476 69.2746 50.4505Z" fill="black"/>
<path d="M81.9958 49.9021C82.2821 49.8516 82.5429 49.6581 82.6223 49.3912L87.4863 33.104C87.5092 32.9945 87.5116 32.8888 87.4899 32.766C87.407 32.2958 86.9032 32.0686 86.4944 32.1407C86.249 32.1839 86.0217 32.3295 85.9459 32.6168L81.0928 48.9653C81.0495 49.0784 81.0471 49.1842 81.0652 49.2865C81.13 49.6542 81.5255 49.985 81.9958 49.9021Z" fill="black"/>
<path d="M82.1329 39.444L81.5995 36.4185C81.275 34.5786 79.9499 34.1167 78.3963 34.3907C76.8222 34.6682 75.7554 35.5519 76.0798 37.3918L76.6133 40.4172C76.9377 42.2572 78.2424 42.7226 79.8165 42.4451C81.3702 42.1711 82.4574 41.2839 82.1329 39.444ZM80.6611 39.7035C80.8089 40.5417 80.3831 40.9962 79.5859 41.1367C78.7886 41.2773 78.2536 40.9923 78.1058 40.1541L77.5723 37.1286C77.4245 36.2904 77.8298 35.8395 78.6271 35.699C79.4243 35.5584 79.9799 35.8398 80.1277 36.678L80.6611 39.7035V39.7035Z" fill="black"/>
<path d="M90.0779 47.8024C91.6315 47.5285 92.7187 46.6412 92.3943 44.8013L91.8608 41.7758C91.5364 39.9359 90.2113 39.4741 88.6577 39.748C87.0836 40.0256 86.0168 40.9092 86.3412 42.749L86.8747 45.7746C87.1992 47.6145 88.5038 48.08 90.0779 47.8024ZM87.8337 42.4859C87.6859 41.6477 88.0912 41.1968 88.8884 41.0562C89.6857 40.9157 90.2412 41.1971 90.389 42.0353L90.9225 45.0609C91.0703 45.8991 90.6445 46.3535 89.8473 46.4941C89.05 46.6347 88.515 46.3497 88.3672 45.5114L87.8337 42.4859V42.4859Z" fill="black"/>
</svg>
