<svg width="92" height="92" viewBox="0 0 92 92" fill="none" xmlns="http://www.w3.org/2000/svg">
<path d="M0 86.4843C0 88.2248 1.40304 89.6357 3.13377 89.6357H88.8662C90.597 89.6357 92 88.2248 92 86.4843V85.3942C92 83.6537 90.597 82.2427 88.8662 82.2427H3.13376C1.40303 82.2427 0 83.6537 0 85.3942V86.4843Z" fill="#FFC757"/>
<path fill-rule="evenodd" clip-rule="evenodd" d="M88.8662 88.06H3.13377C2.2684 88.06 1.56688 87.3545 1.56688 86.4843V85.3942C1.56688 84.5239 2.2684 83.8184 3.13376 83.8184H88.8662C89.7316 83.8184 90.4331 84.5239 90.4331 85.3942V86.4843C90.4331 87.3545 89.7316 88.06 88.8662 88.06ZM3.13377 89.6357C1.40304 89.6357 0 88.2248 0 86.4843V85.3942C0 83.6537 1.40303 82.2427 3.13376 82.2427H88.8662C90.597 82.2427 92 83.6537 92 85.3942V86.4843C92 88.2248 90.597 89.6357 88.8662 89.6357H3.13377Z" fill="black"/>
<path fill-rule="evenodd" clip-rule="evenodd" d="M66.3053 70.9232C72.3993 69.4164 76.3648 69.4596 79.7841 71.4282L74.382 61.1033C71.3112 55.2265 68.8956 51.6558 62.5092 51.3125C61.0682 51.2319 59.8526 51.0554 58.7511 50.6599L29.6078 51.1366C29.5086 50.9884 29.3721 50.8364 29.2877 50.6883C28.2042 51.0651 27.0124 51.2365 25.5998 51.3131C19.2134 51.6558 16.8022 55.2265 13.7269 61.104L8.32486 71.4282C11.7442 69.4596 15.7097 69.4171 21.8088 70.9232H66.3053Z" fill="#2CD37F"/>
<path fill-rule="evenodd" clip-rule="evenodd" d="M32.867 31.4209L27.3709 26.4163H25.0963C24.4605 26.4163 23.8672 26.5921 23.3583 26.8975C22.3553 27.503 21.6821 28.6091 21.6821 29.8723V32.1553C21.6821 34.0524 23.2172 35.6113 25.0963 35.6113H27.6066L32.867 31.4209Z" fill="#59B3F3"/>
<path fill-rule="evenodd" clip-rule="evenodd" d="M59.6312 26.4164L55.0627 31.021L59.3954 35.6063H61.9058C63.7849 35.6063 65.3206 34.0525 65.3206 32.1503V29.8673C65.3206 28.6086 64.6468 27.5031 63.6438 26.8976C63.1349 26.5878 62.5416 26.4113 61.9058 26.4113L59.6312 26.4164Z" fill="#59B3F3"/>
<path fill-rule="evenodd" clip-rule="evenodd" d="M50.4016 29.7763H59.6327V23.7229C59.5058 1.3004 27.3716 4.2984 27.3716 22.6839V29.7814H29.3879C30.961 29.7769 31.879 29.0954 33.0327 27.4121C35.6281 23.6321 36.3154 25.0242 39.325 26.8639C41.5152 28.2038 44.1331 29.7763 50.4016 29.7763Z" fill="#A15D30"/>
<path fill-rule="evenodd" clip-rule="evenodd" d="M29.6074 51.1356C35.1177 59.5872 54.0836 58.8342 58.7506 50.6589C57.3096 50.1442 56.0657 49.2578 54.7664 47.7421C54.3142 47.2132 53.0522 45.9642 52.9859 45.8688L44.7301 43.2992L34.6326 46.3835C34.2133 46.8125 33.6245 47.4129 33.3423 47.7421C32.0237 49.2817 30.7618 50.1732 29.2872 50.6879C29.3723 50.8354 29.5082 50.9881 29.6074 51.1356V51.1356Z" fill="#FEDAC6"/>
<path fill-rule="evenodd" clip-rule="evenodd" d="M21.8086 70.9232C15.7095 69.4165 11.7439 69.4597 8.32459 71.4283C4.24628 79.2267 11.9327 81.2385 21.3847 81.2385H22.8354L28.7554 74.9365L21.8086 70.9232Z" fill="#FEDAC6"/>
<path fill-rule="evenodd" clip-rule="evenodd" d="M66.3043 70.9232L61.0903 75.8564L65.2723 81.2385H66.7281C76.1757 81.2385 83.8614 79.2267 79.7831 71.4283C76.3638 69.4597 72.3982 69.4165 66.3043 70.9232Z" fill="#FEDAC6"/>
<path fill-rule="evenodd" clip-rule="evenodd" d="M59.632 26.4162H50.401C44.1325 26.4162 41.5146 24.838 39.3244 23.5032C36.3148 21.659 35.6274 20.2669 33.032 24.0514C31.8783 25.734 30.9604 26.4162 29.3873 26.4162H27.3716V33.3946C27.3716 34.1141 27.4515 34.8575 27.6068 35.6112C28.3888 39.4337 31.0686 43.5281 34.6335 46.3838C35.9617 47.4512 37.4169 48.3427 38.9475 48.9862C39.1221 49.0578 39.3012 49.1293 39.4796 49.1963C42.4093 50.2971 44.6137 50.2926 47.5428 49.1911C49.4972 48.4522 51.3479 47.2895 52.9874 45.8691C56.2417 43.0514 58.6574 39.2051 59.3969 35.606C59.5522 34.853 59.632 34.1141 59.632 33.3939V26.4162Z" fill="#FEDAC6"/>
<path d="M42.2389 40.9536H44.2994C44.4965 40.9536 44.684 40.8691 44.8145 40.7215C44.945 40.5738 45.0054 40.3774 44.9815 40.1817L44.2946 34.687L42.932 34.8573L43.5213 39.5799H42.239V40.9536H42.2389Z" fill="black"/>
<path fill-rule="evenodd" clip-rule="evenodd" d="M41.2394 44.1757C40.4865 43.8631 39.761 43.3379 39.4763 42.5156L40.8789 42.0301C40.9653 42.2797 41.2396 42.5687 41.8085 42.805C42.3612 43.0344 43.084 43.1648 43.8412 43.1695C44.5976 43.1742 45.3379 43.0532 45.9242 42.8228C46.5225 42.5877 46.8662 42.279 47.0029 41.9714L48.3592 42.5742C48.0011 43.3798 47.2523 43.8956 46.467 44.2042C45.6695 44.5176 44.735 44.6593 43.832 44.6537C42.9297 44.6481 42.0086 44.4951 41.2394 44.1757Z" fill="black"/>
<path fill-rule="evenodd" clip-rule="evenodd" d="M55.0164 33.3947C55.0164 34.1142 54.9365 34.8531 54.7806 35.6061C54.1358 38.7665 52.1904 42.113 49.5248 44.7915C49.1531 45.1639 48.7717 45.5259 48.371 45.8692C46.7322 47.2897 44.8815 48.453 42.9264 49.1913C42.3235 49.4155 41.7495 49.5965 41.1936 49.735C43.3361 50.2497 45.2107 50.0687 47.542 49.1913C49.4964 48.453 51.3472 47.2897 52.9866 45.8692C56.241 43.0522 58.6567 39.2052 59.3962 35.6061C59.5514 34.8531 59.6313 34.1142 59.6313 33.3947V26.4163H55.0164V33.3947Z" fill="#F5C4B0"/>
<path fill-rule="evenodd" clip-rule="evenodd" d="M54.6766 47.6425C54.1677 47.0704 53.0513 45.9592 52.9856 45.869C51.3468 47.2894 49.4955 48.4528 47.541 49.1911C44.6119 50.2926 42.4075 50.2971 39.4784 49.1962C39.2994 49.1292 39.1203 49.0577 38.9463 48.9862C37.4151 48.3427 35.9599 47.4518 34.6323 46.3837C34.2129 46.8127 33.6241 47.4131 33.3413 47.7423C33.1906 47.9143 33.045 48.0805 32.8988 48.2383C33.445 48.7859 34.0248 49.3057 34.6323 49.7921C35.9599 50.8595 37.4151 51.751 38.9463 52.3901C39.1203 52.4661 39.2994 52.5376 39.4784 52.6046C42.4075 53.7055 44.6119 53.701 47.541 52.5949C50.4379 51.5462 50.6447 50.5355 52.6745 52.3901C53.6923 53.3241 54.2714 53.71 55.0953 54.2872C56.6594 53.3145 57.9259 52.1034 58.7504 50.6592C57.3087 50.1445 56.0655 49.2581 54.7655 47.7423C54.7378 47.7088 54.6998 47.6798 54.6573 47.6611L54.6766 47.6425Z" fill="#F5C4B0"/>
<path fill-rule="evenodd" clip-rule="evenodd" d="M38.8764 8.59812C46.9157 8.36879 54.9551 13.2266 55.0163 24.4186V26.4162H59.6319V23.7229C59.5565 10.3612 48.112 6.02848 38.8764 8.59812Z" fill="#A15D30"/>
<path fill-rule="evenodd" clip-rule="evenodd" d="M22.8349 81.2382L22.4207 77.0865H21.1111C14.8194 77.0865 9.30905 76.1949 7.53304 73.2968C5.56958 79.555 12.7374 81.2382 21.3842 81.2382H22.8349Z" fill="#F5C4B0"/>
<path fill-rule="evenodd" clip-rule="evenodd" d="M65.6872 77.0863L65.273 81.2381H66.7282C75.6579 81.2381 83.0138 79.4414 80.3481 72.6582C79.025 76.0666 73.1848 77.0863 66.4551 77.0863H65.6872Z" fill="#F5C4B0"/>
<path fill-rule="evenodd" clip-rule="evenodd" d="M41.2123 61.1176H23.0091C21.9166 61.1176 20.9181 62.0284 21.0264 63.1248L21.8084 70.9232L22.8352 81.2384L23.0658 83.5504C23.1741 84.6461 23.9606 85.5519 25.0486 85.5519H63.0596C64.1528 85.5519 64.9341 84.6461 65.0424 83.5504L65.273 81.2384L66.3043 70.9232L67.0818 63.1248C67.19 62.0284 66.1916 61.1176 65.099 61.1176H41.2123Z" fill="#507087"/>
<path d="M50.3319 73.3824C50.3319 76.6426 47.5287 79.2856 44.0709 79.2856C40.613 79.2856 37.8099 76.6426 37.8099 73.3824C37.8099 70.1221 40.613 67.4791 44.0709 67.4791C47.5287 67.4791 50.3319 70.1221 50.3319 73.3824Z" fill="white"/>
<path fill-rule="evenodd" clip-rule="evenodd" d="M51.7694 73.3824C51.7694 77.515 48.2418 80.7231 44.0709 80.7231C39.9 80.7231 36.3724 77.515 36.3724 73.3824C36.3724 69.2497 39.9 66.0416 44.0709 66.0416C48.2418 66.0416 51.7694 69.2497 51.7694 73.3824ZM44.0709 79.2856C47.5287 79.2856 50.3319 76.6426 50.3319 73.3824C50.3319 70.1221 47.5287 67.4791 44.0709 67.4791C40.613 67.4791 37.8099 70.1221 37.8099 73.3824C37.8099 76.6426 40.613 79.2856 44.0709 79.2856Z" fill="black"/>
<path fill-rule="evenodd" clip-rule="evenodd" d="M43.9041 76.4446C42.7848 76.38 41.7129 75.7345 41.1918 74.7911C40.7083 73.9157 40.7159 72.8159 41.2101 71.9472C41.7634 70.9747 42.861 70.3817 44.0758 70.3307C44.0758 70.3307 44.3776 70.3124 44.5791 70.2046C45.1769 69.8843 45.2662 68.9389 44.6237 68.5529C44.4507 68.449 44.2443 68.4009 44.0385 68.4015C42.009 68.4198 40.0464 69.6156 39.2215 71.3897C38.5282 72.8809 38.6724 74.6892 39.6143 76.072C40.3639 77.1724 41.5864 77.9771 42.9426 78.2553C44.7985 78.6361 46.8543 77.9889 48.0949 76.6243C49.3249 75.2711 49.7007 73.2708 49.0118 71.5915C48.6169 70.6288 47.9171 69.7509 46.9808 69.2227C46.9319 69.1951 46.8807 69.1724 46.8278 69.1543C47.7698 69.9149 48.3669 71.0434 48.3669 72.3022C48.3669 74.5902 46.3942 76.4477 43.9643 76.4477C43.9444 76.4477 43.9424 76.4468 43.9041 76.4446V76.4446Z" fill="#1292EE"/>
<path fill-rule="evenodd" clip-rule="evenodd" d="M59.5645 55.4597C65.9503 55.8076 68.4561 58.5247 71.4374 65.2506L73.8486 69.8649C76.1187 69.9126 78.0216 70.4131 79.7828 71.4283L74.3807 61.1034C71.3099 55.2265 68.8942 51.6558 62.5078 51.3125C61.0667 51.2319 59.8512 51.0554 58.7496 50.6599C57.9251 52.1042 56.6586 53.3146 55.0945 54.2873C54.7228 54.516 58.8108 55.4217 59.5645 55.4597V55.4597Z" fill="#1F9459"/>
<path fill-rule="evenodd" clip-rule="evenodd" d="M27.6066 35.6115C27.4514 34.8578 27.3709 34.1144 27.3709 33.3949V32.8228L25.1291 32.8177C23.2552 32.8177 21.715 31.2639 21.715 29.3623C21.6911 29.5291 21.6821 29.7005 21.6821 29.8719V32.1555C21.6821 34.0526 23.2172 35.6115 25.0963 35.6115H27.6066Z" fill="#1083D6"/>
<path fill-rule="evenodd" clip-rule="evenodd" d="M59.6304 33.3946C59.6304 34.1142 59.5505 34.853 59.3946 35.6061H61.905C63.7841 35.6061 65.3198 34.0523 65.3198 32.15V29.8671C65.075 31.5303 63.6527 32.8174 61.943 32.8174H59.6304V33.3946Z" fill="#1083D6"/>
<path fill-rule="evenodd" clip-rule="evenodd" d="M65.1593 82.3918H22.9515L23.0649 83.5507C23.1731 84.6465 23.9596 85.5522 25.0477 85.5522H63.0586C64.1512 85.5522 64.9332 84.6465 65.0414 83.5507L65.1593 82.3918Z" fill="#465967"/>
<path d="M80.9042 70.8848C80.9023 70.8809 80.9003 70.877 80.8984 70.8732C80.8945 70.8654 80.8907 70.8577 80.8868 70.85L75.4854 60.5257C72.412 54.6438 69.6871 50.4502 62.5754 50.0675C59.6715 49.9097 57.8124 49.3815 55.7124 46.9323C55.4908 46.6727 55.1255 46.2901 54.7654 45.9197C57.4362 43.3217 59.4756 40.0738 60.373 36.8522H61.9048C64.4745 36.8522 66.5655 34.7425 66.5655 32.1497V29.8668C66.5655 28.4187 65.9129 27.1219 64.8893 26.2587V21.7392C64.8893 15.7599 62.5735 10.727 58.1937 7.18593C54.3473 4.07648 49.1881 2.36426 43.6656 2.36426C38.0632 2.36426 32.8286 4.12286 28.9249 7.31669C24.4672 10.964 22.1108 16.1606 22.1108 22.3447V26.2632C22.0116 26.347 21.9143 26.4346 21.8215 26.5274C20.9268 27.4202 20.434 28.6074 20.434 29.8719V32.1549C20.434 34.7477 22.525 36.8567 25.0946 36.8567H26.6271C27.5888 40.3102 29.8615 43.79 32.8163 46.4685C32.6527 46.6418 32.5065 46.8015 32.3951 46.931C30.2892 49.3873 28.4321 49.9149 25.5313 50.0682C19.5824 50.3896 16.7377 53.2897 14.0759 57.8647C13.7294 58.4592 13.931 59.2219 14.5262 59.5685C14.7233 59.6832 14.9385 59.7379 15.1517 59.7379C15.5807 59.7379 15.9988 59.5157 16.2301 59.1182C18.5878 55.0663 20.7896 52.8207 25.6647 52.5573C26.7746 52.4987 27.8027 52.3782 28.7786 52.1334C31.5338 56.0345 37.198 58.3884 43.8047 58.3884C44.0798 58.3884 44.3561 58.3839 44.6344 58.3755C51.1387 58.1835 56.6303 55.8162 59.2824 52.1289C60.259 52.3743 61.2987 52.4948 62.4408 52.5573C68.069 52.8594 70.1555 55.7073 73.2765 61.6814L77.119 69.025C74.5636 68.3976 71.5817 68.5026 67.7147 69.3207L68.3215 63.2474C68.4033 62.4145 68.1282 61.6015 67.5465 60.9593C66.9204 60.2681 66.0276 59.8719 65.098 59.8719H47.4984C46.8098 59.8719 46.252 60.4298 46.252 61.1177C46.252 61.8064 46.8105 62.3642 47.4984 62.3642H65.098C65.3183 62.3642 65.5489 62.4673 65.699 62.6329C65.806 62.7501 65.853 62.8744 65.8407 63.0007L64.0332 81.1085C64.0325 81.1098 64.0325 81.1117 64.0325 81.113L63.8013 83.4275C63.7594 83.8508 63.5095 84.3056 63.0592 84.3056H25.0476C24.6173 84.3056 24.348 83.8637 24.3048 83.4263L24.0742 81.1149C24.0736 81.1117 24.0736 81.1092 24.0736 81.1066L23.0519 70.8764C23.05 70.8216 23.0448 70.7675 23.0358 70.7147L22.266 63.002C22.2531 62.8744 22.3008 62.7501 22.4071 62.6329C22.5578 62.4667 22.7878 62.3642 23.0081 62.3642H41.2113C41.8993 62.3642 42.4571 61.8057 42.4571 61.1177C42.4571 60.4291 41.8993 59.8713 41.2113 59.8713H23.0081C22.0786 59.8713 21.1864 60.2681 20.5602 60.9593C19.9785 61.6015 19.7028 62.4138 19.7853 63.248L20.3915 69.3194C16.5245 68.5026 13.5426 68.3976 10.9878 69.025L13.9304 63.402C14.2492 62.7926 14.0141 62.0389 13.4041 61.7201C12.794 61.4005 12.041 61.637 11.7221 62.2463L7.21931 70.8506C7.21545 70.8584 7.21223 70.8661 7.20772 70.8738C7.20579 70.8777 7.20385 70.8815 7.20192 70.8854C5.72224 73.7327 5.56056 76.1516 6.72587 78.0751C8.52184 81.0422 13.3171 82.4845 21.3835 82.4845H21.7062L21.8247 83.673C22.0038 85.4838 23.3592 86.7985 25.0476 86.7985H63.0586C64.7476 86.7985 66.1029 85.4838 66.2814 83.6736L66.4005 82.4845H66.7278C74.791 82.4845 79.5843 81.0422 81.3809 78.0751C82.5456 76.1516 82.3845 73.732 80.9042 70.8848V70.8848ZM58.3838 25.1694H50.3992C44.4508 25.1694 42.0712 23.7187 39.9738 22.4407C39.5577 22.1856 39.1918 21.9421 38.8381 21.7063C37.7984 21.0145 36.8869 20.4077 35.835 20.4077C35.7203 20.4077 35.6037 20.4154 35.4852 20.4302C34.1363 20.6029 33.1172 21.7205 32.0021 23.3464C30.9328 24.906 30.3305 25.1694 29.3848 25.1694H28.6157V22.6835C28.6157 13.9131 36.5313 9.1584 43.9799 9.13778H44.0283C50.624 9.13778 58.3226 12.9565 58.3838 23.7226V25.1694ZM64.0731 32.1497C64.0731 33.3685 63.1004 34.3599 61.9048 34.3599H60.831C60.8587 34.0359 60.8767 33.7132 60.8767 33.3943V27.6592L61.9048 27.6572C62.2785 27.6572 62.6308 27.7539 62.9381 27.9246C62.9677 27.9452 62.9993 27.9645 63.0315 27.9826C63.6551 28.371 64.0731 29.0693 64.0731 29.8668V32.1497ZM24.6031 22.3447C24.6031 10.3295 34.4848 4.85658 43.6656 4.85658C48.6193 4.85658 53.2226 6.37233 56.6264 9.12426C60.4013 12.1757 62.3963 16.5381 62.3963 21.7392V25.1913C62.234 25.1739 62.0691 25.1649 61.9023 25.1649L60.8767 25.1669V23.7155C60.8097 11.9161 52.3768 6.64482 44.0289 6.64482C44.0109 6.64482 43.9909 6.64482 43.9729 6.64482C39.501 6.6577 35.0671 8.17345 31.8069 10.8043C28.1416 13.7617 26.1227 17.9811 26.1227 22.6835V25.1694H25.0978C25.0939 25.1694 25.0894 25.1694 25.0856 25.1694C24.9232 25.1694 24.7622 25.1784 24.6031 25.1952V22.3447ZM25.0946 34.3644C23.899 34.3644 22.9263 33.373 22.9263 32.1549V29.8719C22.9263 29.2748 23.1588 28.7137 23.5821 28.2918C23.9892 27.8859 24.5232 27.6624 25.0894 27.6624H25.0946H26.1233V33.3943C26.1233 33.7151 26.1414 34.0391 26.1691 34.3651H25.0946V34.3644ZM28.834 35.4118C28.8295 35.3841 28.8244 35.3558 28.8179 35.3287C28.6872 34.673 28.6157 34.0249 28.6157 33.3943V27.6617H29.3855C31.6098 27.6617 32.8621 26.5003 34.0583 24.7559C35.1644 23.1428 35.6456 22.9225 35.8008 22.9026C36.0843 22.8646 36.7813 23.3316 37.457 23.7812C37.8119 24.0183 38.2152 24.2863 38.6739 24.5671C40.9362 25.9457 43.7513 27.6617 50.3992 27.6617H58.3838V33.3943C58.3838 34.0198 58.3129 34.6627 58.1847 35.3133C58.1757 35.35 58.1686 35.3867 58.1634 35.4247C57.1089 40.4893 52.3916 46.026 47.1023 48.0242C44.445 49.0233 42.5647 49.0246 39.9165 48.0293C34.611 46.0356 29.8828 40.4886 28.834 35.4118V35.4118ZM44.5603 55.8838C38.7344 56.0564 33.7266 54.2753 31.1885 51.1832C32.245 50.5893 33.2628 49.748 34.2864 48.5544C34.3972 48.4255 34.5692 48.2413 34.7605 48.0409C36.1062 49.0066 37.5478 49.8021 39.0391 50.3626C40.6431 50.9655 42.0706 51.267 43.5 51.267C44.9327 51.267 46.3673 50.9636 47.9809 50.3568C49.706 49.7055 51.3635 48.7412 52.8838 47.5604C53.231 47.9173 53.6252 48.327 53.8191 48.5537C54.8369 49.7403 55.8335 50.5764 56.8693 51.1684C54.5354 53.9152 49.8974 55.7266 44.5603 55.8838V55.8838ZM21.3835 79.9915C12.6362 79.9915 9.74384 78.2471 8.85746 76.7835C8.20813 75.7109 8.34598 74.2145 9.26329 72.3329C12.0558 70.8532 15.4319 70.7315 20.6523 71.929L21.4569 79.9915H21.3835ZM79.2487 76.7841C78.3623 78.2471 75.4712 79.9915 66.7278 79.9915H66.6492L67.4544 71.9303C72.6735 70.7315 76.0497 70.8526 78.8428 72.3329C79.7608 74.2145 79.898 75.7116 79.2487 76.7841V76.7841Z" fill="black"/>
<path d="M37.7124 35.9145C38.4002 35.9145 38.958 35.3567 38.958 34.6682V33.1288C38.958 32.441 38.4002 31.8832 37.7124 31.8832C37.0238 31.8832 36.4661 32.441 36.4661 33.1288V34.6682C36.4661 35.3567 37.0238 35.9145 37.7124 35.9145Z" fill="black"/>
<path d="M49.2554 35.9145C49.9439 35.9145 50.5017 35.3567 50.5017 34.6682V33.1288C50.5017 32.441 49.9439 31.8832 49.2554 31.8832C48.5675 31.8832 48.0097 32.441 48.0097 33.1288V34.6682C48.0097 35.3567 48.5675 35.9145 49.2554 35.9145Z" fill="black"/>
</svg>
