<svg width="92" height="93" viewBox="0 0 92 93" fill="none" xmlns="http://www.w3.org/2000/svg">
<path d="M39.951 15.3839H55.6888L48.4499 24.2678L39.951 15.3839Z" fill="#FCC69D"/>
<path d="M61.229 11.3589L60.0375 10.0786C58.116 8.01384 55.4221 6.84102 52.6013 6.84102H38.4887V9.1978C38.4887 12.7236 41.3558 15.5772 44.8816 15.5605L56.6988 15.5372L61.229 11.3589Z" fill="#FCC69D"/>
<path d="M45.2444 73.8497C48.2107 76.1781 51.9465 77.3009 55.7051 76.9931L56.275 76.9464L66.1332 86.8046L90.2029 66.048L76.5515 52.4563L45.2444 73.8497Z" fill="#FCC69D"/>
<path d="M20.7186 53.5955L1.7971 72.517L32.3257 86.8147L48.4314 70.6493C55.052 70.4092 61.3362 67.6717 66.0209 62.9872L83.4556 45.5525C85.3985 43.6095 85.3985 40.4594 83.4556 38.5163C81.5126 36.5733 78.3625 36.5733 76.4194 38.5163L74.2108 40.7248L78.8338 36.1018C80.7768 34.1589 80.7768 31.0088 78.8338 29.0656C76.8909 27.1227 73.7408 27.1227 71.7976 29.0656L67.1746 33.6886L73.5566 27.3067C75.4996 25.3637 75.4996 22.2136 73.5566 20.2705C71.6136 18.3275 68.4635 18.3275 66.5204 20.2705L60.1384 26.6524L68.2795 18.5113C70.2225 16.5684 70.2225 13.4183 68.2795 11.4751C66.3366 9.53216 63.1865 9.53216 61.2433 11.4751L48.4503 24.2682" fill="#FCC69D"/>
<path d="M27.7549 46.5592L22.8986 41.703C20.9557 39.76 17.8056 39.76 15.8624 41.703C13.9194 43.646 13.9194 46.7961 15.8624 48.7392L20.7186 53.5954C22.6616 55.5384 25.8117 55.5384 27.7549 53.5954C29.6978 51.6526 29.6978 48.5022 27.7549 46.5592Z" fill="#FCC69D"/>
<path d="M34.7909 39.5232L27.5202 32.2525C25.5772 30.3096 22.4271 30.3096 20.484 32.2525C18.541 34.1955 18.541 37.3456 20.484 39.2887L27.7547 46.5594C29.6976 48.5024 32.8478 48.5024 34.7909 46.5594C36.7339 44.6163 36.7339 41.4662 34.7909 39.5232Z" fill="#FCC69D"/>
<path d="M41.8273 32.4867L32.7976 23.4571C30.8547 21.5141 27.7046 21.5141 25.7614 23.4571C23.8185 25.4 23.8185 28.5501 25.7614 30.4933L34.7911 39.5229C36.7341 41.4659 39.8842 41.4659 41.8273 39.5229C43.7703 37.5801 43.7703 34.4297 41.8273 32.4867Z" fill="#FCC69D"/>
<path d="M48.8635 25.4507L38.0747 14.6618C36.1318 12.7189 32.9816 12.7189 31.0385 14.6618C29.0955 16.6048 29.0955 19.7549 31.0385 21.6981L41.8273 32.4869C43.7703 34.4298 46.9204 34.4298 48.8635 32.4869C50.8065 30.5437 50.8065 27.3936 48.8635 25.4507Z" fill="#FCC69D"/>
<path d="M91.4684 64.772L87.0824 60.4217C86.3775 59.7226 85.2397 59.7274 84.5407 60.4321C83.8416 61.1369 83.8464 62.2748 84.5512 62.9738L88.937 67.3241C89.2874 67.6718 89.745 67.8453 90.2025 67.8453C90.6647 67.8453 91.1272 67.668 91.4785 67.3136C92.1778 66.6089 92.1732 65.4709 91.4684 64.772Z" fill="black"/>
<path d="M80.0717 55.9709L80.0687 55.974C79.3668 56.6758 79.3684 57.8124 80.0703 58.5142C80.4207 58.8648 80.8805 59.04 81.3401 59.04C81.801 59.04 82.2619 58.8641 82.6132 58.5128C83.3151 57.8109 83.3151 56.673 82.6132 55.9709C81.9116 55.2691 80.774 55.2691 80.0717 55.9709Z" fill="black"/>
<path d="M57.5463 75.6753C57.1731 75.3023 56.6545 75.1116 56.1286 75.1548L55.5588 75.2015C52.9287 75.4171 50.329 74.841 48.0592 73.569L49.2142 72.4099C56.0434 71.9889 62.4388 69.1104 67.2917 64.2576L84.7264 46.8231C87.3669 44.1824 87.3669 39.8857 84.7262 37.245C83.7951 36.3139 82.6578 35.7126 81.4598 35.4382C81.8706 34.5553 82.088 33.5862 82.088 32.5834C82.088 30.7743 81.3835 29.0735 80.1045 27.7945C79.1013 26.7911 77.8382 26.1432 76.4674 25.9098C77.2392 23.5584 76.6936 20.8654 74.8272 18.9992C73.801 17.9731 72.5247 17.3478 71.1927 17.1193C71.4158 16.442 71.5335 15.7267 71.5335 14.993C71.5335 13.1839 70.829 11.4832 69.55 10.2042C68.2708 8.92515 66.57 8.22059 64.7611 8.22059C63.6124 8.22059 62.5078 8.50558 61.5266 9.04069L61.3532 8.85435C59.0995 6.43252 55.9095 5.04372 52.6017 5.04372H38.489C37.4966 5.04372 36.6918 5.84854 36.6918 6.84095V9.19774C36.6918 10.1409 36.8513 11.0591 37.1563 11.9225C36.3433 11.5849 35.4638 11.4075 34.5571 11.4075C32.748 11.4075 31.0472 12.1121 29.768 13.3911C27.9007 15.2584 27.3557 17.9534 28.1293 20.3055C26.7962 20.5335 25.5181 21.1592 24.491 22.1861C23.212 23.4653 22.5074 25.166 22.5074 26.975C22.5074 27.7074 22.6247 28.4214 22.847 29.0972C21.4778 29.3314 20.216 29.979 19.2137 30.9814C17.1515 33.0437 16.6999 36.1164 17.8591 38.621C16.6316 38.9015 15.5043 39.5197 14.5918 40.4319C11.9513 43.0724 11.9513 47.3691 14.5918 50.0098L18.1773 53.5951L0.526395 71.2462C-0.175465 71.9481 -0.175465 73.086 0.526395 73.7881C0.877325 74.1388 1.33733 74.3146 1.79715 74.3146C2.25697 74.3146 2.71697 74.139 3.0679 73.7881L20.8897 55.9663C21.8986 56.542 23.0436 56.85 24.2369 56.85C26.0458 56.85 27.7466 56.1454 29.0257 54.8662C30.4153 53.4767 31.0727 51.6283 30.9996 49.8041C31.0907 49.8079 31.1818 49.8106 31.2729 49.8106C33.0069 49.8104 34.7418 49.1502 36.0618 47.8302C37.3408 46.551 38.0453 44.8503 38.0453 43.0414C38.0453 42.9499 38.0423 42.859 38.0387 42.7681C38.1287 42.7717 38.2187 42.7745 38.3089 42.7745C40.0431 42.7745 41.7776 42.1144 43.0978 40.7942C44.3768 39.515 45.0814 37.8142 45.0814 36.0053C45.0814 35.9139 45.0783 35.8229 45.0747 35.732C45.1648 35.7356 45.2548 35.7385 45.345 35.7385C47.0793 35.7385 48.8137 35.0783 50.1338 33.7582C52.615 31.277 52.7643 27.3341 50.583 24.6764L62.5132 12.7462C63.1136 12.1457 63.9114 11.8152 64.7604 11.8152C65.6094 11.8152 66.4074 12.1457 67.0077 12.7462C67.6081 13.3465 67.9385 14.1445 67.9385 14.9934C67.9385 15.8422 67.6081 16.6404 67.0076 17.2406L65.2486 18.9995L58.8665 25.3817C58.1646 26.0835 58.1646 27.2215 58.8665 27.9235C59.2174 28.2743 59.6774 28.45 60.1372 28.45C60.597 28.45 61.057 28.2745 61.408 27.9235L67.7901 21.5414C69.0291 20.3023 71.0452 20.3021 72.2846 21.5412C73.5238 22.7805 73.5238 24.7968 72.2846 26.0359L70.5255 27.795L65.9025 32.418C65.2006 33.1199 65.2006 34.2579 65.9025 34.9599C66.2534 35.3107 66.7134 35.4864 67.1732 35.4864C67.6331 35.4864 68.0931 35.3108 68.444 34.9599L73.067 30.3369C73.6673 29.7364 74.4655 29.4059 75.3142 29.4059C76.1632 29.4059 76.9612 29.7364 77.5615 30.3369C78.1619 30.9372 78.4923 31.7352 78.4923 32.5841C78.4923 33.4329 78.1619 34.2311 77.5613 34.8313L75.1469 37.2457L72.9383 39.4543C72.2365 40.1561 72.2365 41.2941 72.9383 41.9961C73.2893 42.3469 73.7493 42.5226 74.2091 42.5226C74.6689 42.5226 75.1289 42.347 75.4798 41.9961L77.69 39.786C78.9293 38.5488 80.9441 38.549 82.1829 39.7876C83.4222 41.0267 83.4222 43.043 82.1829 44.2823L64.7482 61.7168C60.3703 66.0949 54.5518 68.6294 48.3646 68.854C47.9098 68.8706 47.4779 69.0591 47.1566 69.3818L31.0508 85.5472C30.3502 86.2503 30.3522 87.3883 31.0555 88.0889C31.4061 88.4382 31.865 88.613 32.3239 88.613C32.7848 88.613 33.2461 88.4367 33.597 88.0842L45.4433 76.1943C48.4523 78.1247 51.9911 79.0425 55.5893 78.8046L64.8608 88.0763C65.2118 88.427 65.6718 88.6028 66.1316 88.6028C66.5914 88.6028 67.0514 88.4272 67.4023 88.0763C68.1042 87.3744 68.1042 86.2365 67.4023 85.5344L57.5463 75.6753ZM40.2859 8.63801H52.6013C54.9148 8.63801 57.1456 9.60922 58.7218 11.303L58.7949 11.3815L48.0654 22.111L43.1291 17.1746C43.6888 17.2941 44.2643 17.3575 44.8501 17.3574C44.8632 17.3574 44.8765 17.3574 44.8898 17.3574L49.8219 17.3342C50.8143 17.3295 51.6154 16.5211 51.6107 15.5285C51.606 14.5388 50.8023 13.7397 49.8136 13.7397C49.8107 13.7397 49.8079 13.7397 49.805 13.7397L44.8729 13.7629C44.8654 13.7629 44.8582 13.7629 44.8507 13.7629C43.6354 13.7629 42.4924 13.2912 41.6307 12.4335C40.7635 11.5703 40.2861 10.4214 40.2861 9.19774L40.2859 8.63801ZM26.4842 52.3247C25.8839 52.9253 25.0857 53.2557 24.2371 53.2557C23.388 53.2557 22.5901 52.9253 21.9899 52.3247L17.1337 47.4687C15.8945 46.2296 15.8945 44.2131 17.1337 42.974C17.734 42.3735 18.5322 42.043 19.381 42.043C20.2299 42.043 21.028 42.3735 21.6282 42.974L26.4844 47.83C27.7234 49.0692 27.7234 51.0854 26.4842 52.3247ZM34.4514 43.0412C34.4514 43.89 34.121 44.6882 33.5206 45.2884C32.2813 46.5275 30.2649 46.5275 29.0259 45.2884L24.1697 40.4321L21.755 38.0175C20.5159 36.7783 20.5159 34.7621 21.755 33.5229C22.3554 32.9224 23.1536 32.592 24.0022 32.592C24.8512 32.592 25.6492 32.9224 26.2494 33.5229L33.5201 40.7936C33.5201 40.7936 33.5201 40.7936 33.5203 40.7936C34.1208 41.3942 34.4514 42.1923 34.4514 43.0412ZM41.4874 36.005C41.4874 36.8538 41.157 37.652 40.5567 38.2521C39.3174 39.4911 37.3011 39.4913 36.062 38.2521L27.0321 29.2223C26.4318 28.622 26.1013 27.824 26.1013 26.9751C26.1013 26.1263 26.4318 25.3281 27.0323 24.728C27.6519 24.1084 28.4658 23.7986 29.2795 23.7986C30.0927 23.7986 30.9058 24.108 31.5252 24.7265L35.6408 28.8421L40.5563 33.7576H40.5565C41.157 34.358 41.4874 35.1559 41.4874 36.005ZM47.5929 31.2159C46.3537 32.4551 44.3375 32.4551 43.0983 31.2159L34.0685 22.1861C34.0676 22.1852 34.0665 22.1843 34.0654 22.1832L32.3094 20.4271C31.0702 19.1878 31.0702 17.1716 32.3094 15.9324C32.9289 15.3127 33.7429 15.0029 34.5567 15.0029C35.3705 15.0029 36.1845 15.3127 36.8039 15.9324L47.5925 26.7211C48.193 27.3214 48.5235 28.1196 48.5235 28.9682C48.5236 29.8174 48.1934 30.6158 47.5929 31.2159Z" fill="black"/>
</svg>
