<svg width="380" height="301" viewBox="0 0 380 301" fill="none" xmlns="http://www.w3.org/2000/svg">
<ellipse opacity="0.3" cx="189.874" cy="279.926" rx="187.139" ry="20.2263" fill="black"/>
<rect x="62.5347" y="81.7747" width="255.541" height="155.612" rx="0.631635" fill="#89C9F7"/>
<g style="mix-blend-mode:soft-light" opacity="0.6">
<path d="M63.1666 237.387H147.261L202.24 81.7749H63.1666C62.8177 81.7749 62.5349 82.0578 62.5349 82.4066V236.755C62.5349 237.104 62.8177 237.387 63.1666 237.387Z" fill="url(#paint0_linear)"/>
</g>
<rect x="62.4557" y="81.6957" width="255.41" height="155.651" rx="0.710589" stroke="black" stroke-width="0.157909"/>
<path d="M315.937 74.0781H63.8007C51.1895 74.0781 40.9304 83.637 40.9304 95.3867V264.178C40.9304 266.741 43.1509 268.814 45.8952 268.814H333.852C336.596 268.814 338.817 266.741 338.817 264.178V95.3867C338.817 83.637 328.553 74.0781 315.937 74.0781ZM60.7895 236.358V97.261C60.7895 94.7005 63.0125 92.6244 65.7543 92.6244H313.993C316.735 92.6244 318.958 94.7005 318.958 97.261V236.358C318.958 238.919 316.735 240.995 313.993 240.995H65.7543C63.0125 240.995 60.7895 238.919 60.7895 236.358Z" fill="#507087"/>
<path fill-rule="evenodd" clip-rule="evenodd" d="M38.9404 95.3865C38.9404 82.6063 50.0948 72.2195 63.8006 72.2195H315.937C329.647 72.2195 340.807 82.6056 340.807 95.3865V264.178C340.807 267.767 337.696 270.673 333.852 270.673H45.8952C42.0519 270.673 38.9404 267.767 38.9404 264.178V95.3865ZM63.8006 75.9363C52.2841 75.9363 42.9203 84.6672 42.9203 95.3865V264.178C42.9203 265.714 44.2499 266.956 45.8952 266.956H333.852C335.497 266.956 336.827 265.714 336.827 264.178V95.3865C336.827 84.668 327.459 75.9363 315.937 75.9363H63.8006ZM65.7543 94.4826C64.1115 94.4826 62.7795 95.7266 62.7795 97.2608V236.358C62.7795 237.892 64.1115 239.136 65.7543 239.136H313.993C315.636 239.136 316.968 237.892 316.968 236.358V97.2608C316.968 95.7266 315.636 94.4826 313.993 94.4826H65.7543ZM58.7995 97.2608C58.7995 93.6739 61.9135 90.7658 65.7543 90.7658H313.993C317.834 90.7658 320.948 93.6739 320.948 97.2608V236.358C320.948 239.945 317.834 242.853 313.993 242.853H65.7543C61.9135 242.853 58.7995 239.945 58.7995 236.358V97.2608Z" fill="black"/>
<path d="M354.412 258.795H25.3307C22.3968 258.795 20.0229 261.008 20.0229 263.742C20.0229 274.667 29.555 283.552 41.2746 283.552H338.468C350.187 283.552 359.719 274.667 359.719 263.742C359.72 261.008 357.346 258.795 354.412 258.795Z" fill="#85A1B4"/>
<path d="M22.0653 263.742H17.9812L22.6509 268.111C22.2683 266.71 22.0653 265.246 22.0653 263.742Z" fill="black"/>
<path d="M25.331 256.811C21.349 256.811 17.9812 259.836 17.9812 263.742H22.0653C22.0653 262.178 23.4453 260.777 25.331 260.777H354.413C356.299 260.777 357.678 262.179 357.678 263.742H361.762C361.762 259.836 358.394 256.811 354.413 256.811H25.331Z" fill="black"/>
<path d="M17.9812 263.742C17.9812 275.837 28.5072 285.535 41.2749 285.535L36.4213 280.994C29.6458 279.354 24.3589 274.364 22.6509 268.111L17.9812 263.742Z" fill="black"/>
<path d="M338.468 281.568H99.6018L41.2749 285.535H338.468C351.236 285.535 361.762 275.837 361.762 263.742L357.675 264.02C357.515 273.648 349.038 281.568 338.468 281.568Z" fill="black"/>
<path d="M36.4213 280.994L41.2749 285.535L99.6018 281.568H41.2749C39.5959 281.568 37.9698 281.369 36.4213 280.994Z" fill="black"/>
<path d="M361.762 263.742H357.678C357.678 263.835 357.677 263.927 357.675 264.02L361.762 263.742Z" fill="black"/>
<path d="M170.013 268.69H209.731C215.214 268.69 219.66 264.26 219.66 258.795H160.083C160.083 264.26 164.528 268.69 170.013 268.69Z" fill="#3D5567"/>
<path fill-rule="evenodd" clip-rule="evenodd" d="M158.758 257.473H220.989V258.795C220.989 264.99 215.949 270.012 209.732 270.012H170.014C163.797 270.012 158.758 264.99 158.758 258.795V257.473ZM161.513 260.117C162.151 264.224 165.714 267.368 170.014 267.368H209.732C214.032 267.368 217.596 264.224 218.234 260.117H161.513Z" fill="black"/>
<mask id="mask0" mask-type="alpha" maskUnits="userSpaceOnUse" x="105" y="2" width="213" height="236">
<path d="M105.167 2.04004H317.803V237.855H105.167V2.04004Z" fill="#C4C4C4"/>
</mask>
<g mask="url(#mask0)">
<path d="M214.534 225.267L214.534 225.267C216.083 225.362 217.503 225.476 218.841 225.584C224.381 226.029 228.512 226.362 234.594 224.801C234.969 224.705 235.367 224.83 235.619 225.124C235.872 225.419 235.935 225.831 235.783 226.187L227.054 246.621C226.917 246.941 226.628 247.168 226.285 247.226C220.301 248.225 214.643 248.721 208.992 249.148C208.05 249.22 207.109 249.289 206.167 249.358C201.451 249.706 196.706 250.055 191.708 250.658C191.698 250.659 191.68 250.662 191.659 250.665C191.112 250.733 190.61 250.353 190.527 249.808C190.261 248.063 190.035 246.332 189.812 244.613C189.26 240.38 188.719 236.226 187.608 232.157C187.482 231.695 187.694 231.208 188.118 230.986C188.179 230.955 188.239 230.923 188.299 230.892C189.05 230.499 189.788 230.113 190.506 229.71L214.534 225.267ZM214.534 225.267C213.464 225.201 211.456 224.795 209.641 224.382C208.75 224.179 207.93 223.981 207.333 223.833C207.035 223.759 206.792 223.698 206.625 223.655C206.541 223.634 206.476 223.617 206.432 223.606L206.382 223.593L206.37 223.59L206.367 223.589L206.366 223.589L206.366 223.589C206.178 223.54 205.98 223.546 205.796 223.606M214.534 225.267L205.796 223.606M205.796 223.606L206.11 224.574M205.796 223.606L206.11 224.574M206.11 224.574C205.796 223.606 205.795 223.606 205.795 223.606L205.795 223.606L205.793 223.607L205.787 223.609L205.764 223.616L205.675 223.646C205.596 223.671 205.481 223.709 205.333 223.758C205.038 223.857 204.611 224 204.084 224.18C203.03 224.54 201.576 225.047 199.973 225.638C196.789 226.813 192.942 228.343 190.506 229.71L206.11 224.574ZM191.728 250.654C191.728 250.654 191.727 250.654 191.725 250.655L191.726 250.654L191.728 250.654L191.728 250.654Z" fill="#FEDAC6" stroke="black" stroke-width="2.03621" stroke-linejoin="round"/>
<path d="M339.573 224.372C334.705 222.235 330.022 219.94 324.718 219.091C321.088 218.51 316.948 218.208 313.35 219.147L313.621 226.654C317 225.751 320.86 224.599 324.335 224.917C329.223 225.366 333.494 227.78 337.906 229.716C339.311 230.333 341.012 229.203 341.425 227.873C341.919 226.289 340.974 224.986 339.573 224.372Z" fill="#FEDAC6" stroke="black" stroke-width="2.03621"/>
<path d="M343.905 234.11C339.72 231.192 335.423 228.345 330.465 226.921C325.258 225.425 318.923 224.433 313.527 224.402C313.514 224.401 313.891 225.225 313.876 225.226L313.075 230.478C313.532 230.675 313.965 231.277 314.5 231.28C319.007 231.306 323.962 231.124 328.361 232.108C332.781 233.097 336.73 235.923 340.371 238.463C343.328 240.526 346.874 236.181 343.905 234.11Z" fill="#FF9F7D" stroke="black" stroke-width="2.03621"/>
<path d="M339.421 239.614C335.372 236.79 331.189 234.01 326.359 232.719C322.153 231.595 317.487 231.32 313.062 231.248L312.218 236.789C316.377 236.832 320.846 237.14 324.878 238.077C328.919 239.019 332.549 241.637 335.888 243.966C338.846 246.029 342.392 241.685 339.421 239.614Z" fill="#FF9F7D" stroke="black" stroke-width="2.03621"/>
<path d="M332.829 243.791C328.779 240.967 324.598 238.187 319.767 236.897C317.218 236.216 314.505 235.848 311.776 235.647L310.802 242.273C313.303 242.465 315.725 242.331 318.076 242.879C322.119 243.819 325.955 245.814 329.294 248.143C332.254 250.206 335.798 245.862 332.829 243.791Z" fill="#FF9F7D" stroke="black" stroke-width="2.03621"/>
<path d="M313.132 219.323C313.132 219.323 307.18 221.145 304.853 221.39C303.351 221.548 301.963 221.72 300.646 221.884C295.1 222.573 290.802 223.107 284.474 221.771L294.083 241.81C301.052 242.668 307.561 242.866 314.179 243.067C318.909 243.211 323.696 243.357 328.746 243.746C328.751 243.747 328.758 243.748 328.764 243.749C328.771 243.75 328.778 243.751 328.785 243.751C328.97 242.047 329.117 240.337 329.265 238.627C329.395 237.123 329.525 235.618 329.68 234.118C331.848 233.08 334.709 234.5 336.881 235.578C338.407 236.335 339.593 236.924 339.959 236.373C341.766 233.66 336.09 229.473 332.421 226.767C331.652 226.199 330.97 225.696 330.465 225.286C328.106 223.372 325.942 222.964 323.369 222.572C318.531 220.824 313.132 219.323 313.132 219.323Z" fill="#FEDAC6" stroke="black" stroke-width="2.03621"/>
<path d="M351.919 249.906C351.921 249.936 351.922 249.966 351.922 249.996C351.933 255.257 350.838 259.321 349.004 262.426C347.166 265.535 344.628 267.611 341.871 268.955C336.403 271.619 330.064 271.415 326.371 270.835L326.359 270.833L326.359 270.833C326.323 270.827 326.285 270.821 326.243 270.814C326.202 270.808 326.156 270.801 326.111 270.793C326.11 270.793 326.11 270.793 326.109 270.793L326.3 269.656C323.7 269.222 320.357 268.627 316.495 267.914L351.919 249.906ZM351.919 249.906C351.723 247.452 351.482 244.849 351.202 242.13L351.202 242.13C349.651 227.062 346.899 208.425 343.814 191.942C340.739 175.511 337.306 161.068 334.364 154.489C332.714 150.799 328.886 147.631 325.286 146.341L325.286 146.341M351.919 249.906L325.286 146.341M304.592 156.013L305.676 156.406L312.746 147.002C308.98 148.82 306.015 152.086 304.592 156.013ZM304.592 156.013C303.025 160.339 303.69 164.148 305.096 168.077M304.592 156.013L305.096 168.077M305.096 168.077C305.89 170.633 306.586 173.23 307.234 175.843L307.235 175.844C310.421 188.644 312.757 201.68 314.76 214.743L314.76 214.744C315.922 222.312 316.959 229.904 317.811 237.513C318.589 244.474 319.212 251.454 319.629 258.44L305.096 168.077ZM325.286 146.341C321.217 144.885 316.64 145.118 312.746 147.001L325.286 146.341Z" fill="#0D8FAC" stroke="black" stroke-width="2.30601" stroke-linejoin="round"/>
<path d="M327.91 245.104L327.91 245.104C328.372 255.275 327.531 261.347 325.836 264.748C325.009 266.408 324.004 267.379 322.883 267.917C321.746 268.463 320.367 268.622 318.699 268.434L318.634 268.422C317.367 268.204 297.944 264.856 276.663 261.11C255.3 257.349 232.191 253.208 223.947 251.478C224.373 249.704 224.751 247.881 225.101 246.03L225.101 246.03C225.719 242.752 226.245 239.373 226.763 236.025C226.783 235.898 226.803 235.771 226.822 235.644C227.321 232.419 227.815 229.226 228.381 226.15L228.381 226.148C228.492 225.538 228.608 224.931 228.726 224.329C228.753 224.192 228.78 224.056 228.807 223.921C228.9 223.461 229.367 223.135 229.872 223.232C234.49 224.117 244.974 226.008 254.602 227.745C263.732 229.392 272.092 230.9 273.957 231.28L273.957 231.28C279.847 232.481 287.996 233.778 296.574 234.961C306.932 236.391 317.946 237.652 326.405 238.366C326.806 238.399 327.111 238.685 327.178 239.039C327.592 241.245 327.827 243.262 327.91 245.104Z" fill="#0D8FAC" stroke="black" stroke-width="2.30601"/>
<path d="M170.479 249.996C170.479 249.966 170.48 249.936 170.482 249.906C170.679 247.452 170.919 244.849 171.199 242.131L171.199 242.131C172.75 227.062 175.502 208.426 178.587 191.943C181.662 175.511 185.095 161.069 188.037 154.489L188.037 154.489C189.687 150.799 193.515 147.631 197.115 146.341L197.115 146.341C201.184 144.884 205.76 145.119 209.653 147.002L170.479 249.996ZM170.479 249.996C170.469 255.256 171.564 259.321 173.398 262.425C175.235 265.535 177.773 267.611 180.531 268.955C185.998 271.619 192.337 271.415 196.031 270.835L196.041 270.833M170.479 249.996L196.041 270.833M196.041 270.833C196.075 270.828 196.221 270.805 196.295 270.792C199.197 270.308 203.017 269.624 207.442 268.803C207.851 268.727 208.187 268.436 208.322 268.043C208.457 267.649 208.369 267.213 208.092 266.902C206.622 265.254 205.237 263.676 204.233 262.183C203.211 260.663 202.721 259.426 202.772 258.441C203.19 251.455 203.813 244.475 204.59 237.514C205.442 229.905 206.48 222.313 207.641 214.744L207.641 214.744C209.644 201.681 211.981 188.645 215.167 175.845L215.168 175.844C215.815 173.231 216.51 170.633 217.304 168.078M196.041 270.833L217.304 168.078M217.304 168.078C218.71 164.149 219.376 160.339 217.809 156.014L217.809 156.014C216.385 152.086 213.42 148.821 209.654 147.002L217.304 168.078Z" fill="#0D8FAC" stroke="black" stroke-width="2.30601" stroke-linejoin="round"/>
<path d="M193.23 246.014C193.192 266.41 199.705 270.017 206.882 268.891C206.966 268.876 284.483 252.757 299.494 248.851C299.775 248.778 299.895 248.496 299.816 248.217V248.217C299.248 246.293 298.737 244.296 298.259 242.255C296.749 235.801 295.582 228.916 294.119 222.54C293.981 221.929 293.837 221.322 293.693 220.721C293.66 220.583 293.626 220.447 293.592 220.31C293.323 219.22 292.234 218.547 291.137 218.788C278.1 221.653 208.523 235.931 195.399 238.05C194.511 238.193 193.838 238.872 193.71 239.762C193.385 242.03 193.234 244.111 193.23 246.014Z" fill="#0D8FAC"/>
<path d="M216.862 168.403C216.862 168.403 210.794 192.695 208.12 205.948C206.088 216.019 204.283 228.297 203.534 233.61C203.345 234.948 204.494 236.078 205.831 235.88C213.194 234.789 234.222 231.608 248.559 228.781C264.719 225.595 285.086 220.856 291.496 219.349C292.614 219.086 293.716 219.799 293.949 220.923L299.184 246.184C299.407 247.259 298.736 248.318 297.669 248.576L253.804 259.18L204.946 270.046" stroke="black" stroke-width="1.52716" stroke-linejoin="round"/>
<path d="M252.036 127.189L198.616 146.266L204.699 250.969H317.309L321.481 146.266L267.616 127.189H252.036Z" fill="#0D8FAC" stroke="black" stroke-width="2.30601"/>
<path d="M242.668 90.4315H241.515V91.5845V135.426V136.108L242.113 136.436L242.668 135.426C242.113 136.436 242.113 136.436 242.113 136.436L242.114 136.437L242.116 136.438L242.123 136.442L242.148 136.455C242.17 136.467 242.202 136.484 242.243 136.507C242.325 136.551 242.446 136.615 242.601 136.697C242.912 136.859 243.362 137.091 243.924 137.367C245.046 137.921 246.621 138.658 248.432 139.397C252.012 140.857 256.667 142.386 260.584 142.386C264.501 142.385 269.156 140.857 272.736 139.397C274.546 138.658 276.121 137.92 277.243 137.367C277.805 137.09 278.255 136.859 278.565 136.697C278.721 136.615 278.841 136.551 278.924 136.507C278.965 136.484 278.997 136.467 279.019 136.455L279.044 136.442L279.051 136.438L279.053 136.437L279.054 136.436C279.054 136.436 279.054 136.436 278.498 135.426L279.054 136.436L279.651 136.107V135.426V91.5845V90.4315H278.498H242.668Z" fill="#FEDAC6" stroke="black" stroke-width="2.30601"/>
<path d="M242.667 95.0249V123.458C245.871 125.024 253.772 125.833 256.159 125.833C266.792 125.833 271.714 123.749 278.497 118.433V95.0249H242.667V95.0249Z" fill="#FDC2A2"/>
<path d="M229.989 73.6446C230.977 79.5296 219.603 85.211 215.497 74.8156C213.651 70.1369 213.719 61.3523 222.885 59.5463C225.489 59.0331 227.99 60.427 228.49 62.7503C228.49 62.7503 229.058 68.0911 229.989 73.6446Z" fill="#FEDAC6"/>
<path fill-rule="evenodd" clip-rule="evenodd" d="M227.108 63.071C226.721 61.3182 224.828 60.1341 222.69 60.5692L222.69 60.5692C218.649 61.3915 216.686 63.761 215.887 66.4238C215.07 69.1466 215.457 72.2363 216.279 74.385M227.108 63.071L227.11 63.0904L227.129 63.2656C227.145 63.4189 227.17 63.6436 227.202 63.9298C227.266 64.5022 227.36 65.3212 227.482 66.309C227.725 68.2837 228.079 70.9366 228.518 73.6435L228.518 73.6436C228.708 74.8098 228.312 76.0142 227.48 77.0533C226.646 78.0931 225.407 78.9192 224.029 79.2964C222.657 79.6717 221.175 79.5959 219.824 78.8787C218.478 78.1637 217.192 76.773 216.279 74.3851M228.585 63.3827L228.636 63.3568L228.519 62.7952C227.949 60.0592 225.153 58.5577 222.413 59.1154C217.843 60.0453 215.468 62.8136 214.517 65.9852C213.583 69.0969 214.03 72.5384 214.944 74.9291L214.944 74.9292C215.959 77.5843 217.455 79.2868 219.168 80.1964C220.877 81.104 222.731 81.1843 224.396 80.7287C226.056 80.2747 227.555 79.2826 228.585 77.9981C229.615 76.713 230.207 75.0873 229.933 73.3985C229.498 70.7172 229.147 68.0851 228.905 66.1219C228.784 65.1406 228.69 64.3274 228.627 63.7599C228.611 63.6185 228.597 63.4924 228.585 63.3827Z" fill="black"/>
<path d="M227.06 66.2324C226.482 64.2666 224.813 62.3226 222.58 62.691C220.773 62.9888 218.525 64.9303 218.742 66.9517C219.245 64.9992 221.238 62.7987 223.346 64.095C225.158 65.2079 225.221 67.8509 225.119 69.7713C215.497 74.8151 226.909 79.3491 227.443 72.342C227.586 70.4687 227.571 67.9703 227.06 66.2324Z" fill="#FCAA7C"/>
<path d="M289.782 73.6439C288.795 79.5289 300.168 85.2103 304.273 74.8148C306.121 70.1361 306.052 61.3516 296.887 59.5455C294.282 59.0324 291.779 60.4262 291.279 62.7496C291.28 62.7496 290.713 68.0904 289.782 73.6439Z" fill="#FEDAC6"/>
<path fill-rule="evenodd" clip-rule="evenodd" d="M291.106 64.2768C290.871 66.2569 290.409 69.9021 289.782 73.6439C288.795 79.5289 300.168 85.2103 304.273 74.8148C306.121 70.1361 306.052 61.3516 296.887 59.5455C294.788 59.132 292.755 59.957 291.783 61.509C291.549 61.8828 291.376 62.2987 291.279 62.7496C291.279 62.7496 291.279 62.7496 291.279 62.7497C291.279 62.7547 291.222 63.2921 291.115 64.2002C291.112 64.2254 291.109 64.251 291.106 64.2768ZM296.592 61.0439C300.612 61.8361 302.482 64.0727 303.251 66.555C304.059 69.1609 303.678 72.1641 302.853 74.2539L302.853 74.254C301.935 76.5776 300.678 77.8503 299.44 78.487C298.194 79.1279 296.813 79.2038 295.509 78.8583C294.191 78.5092 293.012 77.7431 292.229 76.7976C291.447 75.8534 291.131 74.8292 291.288 73.8966" fill="black"/>
<path d="M292.711 66.2322C293.289 64.2663 294.957 62.3223 297.189 62.6908C298.997 62.9886 301.245 64.93 301.028 66.9514C300.525 64.999 298.532 62.7984 296.421 64.0947C294.61 65.2076 294.548 67.8506 294.65 69.7711C304.272 74.8149 292.86 79.3489 292.325 72.3418C292.183 70.4684 292.199 67.9701 292.711 66.2322Z" fill="#FCAA7C"/>
<path d="M260.03 21.9851V21.9834C260.001 21.9834 259.974 21.9842 259.946 21.9842C259.918 21.9842 259.892 21.9834 259.864 21.9834V21.9851C240.403 22.1643 224.794 27.415 224.794 33.8669V90.5137C224.794 96.9984 232.364 117.54 259.864 118.042V118.046C259.892 118.046 259.918 118.044 259.946 118.043C259.974 118.044 260.001 118.046 260.03 118.046V118.042C287.528 117.54 295.098 96.9984 295.098 90.5137V33.8669C295.098 27.415 279.489 22.1643 260.03 21.9851Z" fill="#FEDAC6"/>
<path d="M259.076 66.2131L255.712 76.1199C256.374 77.0852 257.975 78.8633 259.076 78.2536" stroke="#944C23" stroke-width="1.55532" stroke-linecap="round"/>
<path d="M274.083 71.2008C275.323 71.2008 276.329 69.523 276.329 67.4533C276.329 65.3836 275.323 63.7058 274.083 63.7058C272.842 63.7058 271.837 65.3836 271.837 67.4533C271.837 69.523 272.842 71.2008 274.083 71.2008Z" fill="black"/>
<path d="M245.727 71.2001C246.968 71.2001 247.973 69.5227 247.973 67.4535C247.973 65.3842 246.968 63.7068 245.727 63.7068C244.486 63.7068 243.48 65.3842 243.48 67.4535C243.48 69.5227 244.486 71.2001 245.727 71.2001Z" fill="black"/>
<path d="M280.831 56.3988C278.128 52.0069 270.837 52.2778 268.269 56.6772C267.263 58.4 269.941 59.952 270.943 58.2342C272.326 55.8638 276.658 55.5231 278.155 57.9558C279.197 59.6483 281.877 58.0997 280.831 56.3988Z" fill="#502F1A"/>
<path d="M241.652 57.9564C243.151 55.5237 247.482 55.8635 248.865 58.2348C249.868 59.9525 252.546 58.4005 251.54 56.6778C248.973 52.2783 241.681 52.0092 238.978 56.3993C237.932 58.1002 240.612 59.648 241.652 57.9564Z" fill="#502F1A"/>
<path d="M246.315 92.256H273.495C273.207 98.0864 267.352 102.929 259.904 102.929C252.457 102.929 246.602 98.0865 246.315 92.256Z" fill="white" stroke="black" stroke-width="1.34358"/>
<path d="M243.167 91.6789C247.025 89.9023 251.342 89.2512 255.558 89.1082C258.548 89.0081 258.556 84.3816 255.558 84.4833C250.473 84.6549 245.457 85.55 240.821 87.6858C238.104 88.9366 240.466 92.923 243.167 91.6789Z" fill="#502F1A"/>
<path d="M278.479 87.2102C273.993 85.3352 269.041 84.7161 264.203 84.7262C261.206 84.7321 261.206 89.357 264.203 89.3519C268.671 89.3435 273.101 89.9391 277.243 91.6702C278.414 92.1598 279.798 91.1529 280.102 90.0551C280.471 88.721 279.646 87.6981 278.479 87.2102Z" fill="#502F1A"/>
<path d="M295.056 35.9315V92.5799C295.056 99.0638 287.484 119.606 259.987 120.108V120.111H259.822V120.108C232.323 119.606 224.753 99.0638 224.753 92.5799V35.9315C224.753 34.4644 225.56 33.0579 227.036 31.7659V84.7694C227.036 91.2534 234.114 111.795 259.828 112.297V112.3H259.982V112.297C285.696 111.795 292.773 91.2534 292.773 84.7694V31.7659C294.25 33.0588 295.056 34.4653 295.056 35.9315Z" fill="#502F1A" stroke="black" stroke-width="2.03621"/>
<path d="M260.154 117.548L266.846 116.701C265.065 115.856 263.026 107.579 263.057 106.191C262.029 106.439 257.782 106.439 256.752 106.191C256.784 107.579 254.746 115.856 252.963 116.701L259.655 117.548C259.651 117.569 259.647 117.593 259.641 117.614L259.904 117.58L260.166 117.614C260.161 117.593 260.159 117.569 260.154 117.548Z" fill="#502F1A"/>
<path d="M296.837 23.255C290.71 17.5374 262.915 3.89497 260.072 4.69831C255.753 4.66634 224.047 17.5374 220.752 27.1337C217.236 37.366 224.795 72.4622 224.795 72.4622C230.68 71.4511 226.462 49.3808 227.599 46.1228C228.887 42.4317 234.508 37.6705 238.38 38.3696C271.157 44.2865 280.6 37.8287 281.764 38.3696C285.33 40.0242 290.495 42.2786 291.783 45.9706C292.919 49.2285 289.171 71.452 295.055 72.4631C295.056 72.4623 304.764 30.6508 296.837 23.255Z" fill="#794828" stroke="black" stroke-width="2.03621"/>
<path d="M240.215 31.1164C240.544 31.1164 240.873 31.1147 241.202 31.1122C240.661 31.0187 240.125 30.9184 239.601 30.8105L240.215 31.1164Z" fill="#602F14"/>
<path d="M279.009 21.6206C277.501 17.8697 270.807 13.726 267.032 12.7788C269.201 18.0775 269.852 22.8302 263.784 26.1462C256.508 30.1225 248.619 31.0453 240.524 31.1109C250.098 32.7731 262.078 32.2634 271.223 29.9585C275.53 28.8734 281.32 27.3718 279.009 21.6206Z" fill="#502F1A"/>
<circle cx="259.867" cy="175.659" r="15.0041" fill="white" stroke="black" stroke-width="1.26507"/>
<path fill-rule="evenodd" clip-rule="evenodd" d="M259.484 183.114C256.915 182.957 254.454 181.385 253.258 179.089C252.148 176.957 252.166 174.28 253.3 172.165C254.57 169.797 257.09 168.354 259.878 168.23C259.878 168.23 260.571 168.185 261.034 167.923C262.406 167.143 262.611 164.841 261.136 163.902C260.739 163.649 260.265 163.532 259.793 163.533C255.134 163.578 250.629 166.489 248.736 170.808C247.144 174.438 247.475 178.841 249.637 182.207C251.358 184.886 254.164 186.845 257.277 187.522C261.537 188.449 266.256 186.874 269.104 183.552C271.927 180.257 272.79 175.387 271.208 171.299C270.302 168.955 268.696 166.818 266.546 165.532C266.434 165.465 266.317 165.41 266.195 165.366C268.357 167.217 269.728 169.965 269.728 173.029C269.728 178.6 265.2 183.122 259.622 183.122C259.577 183.122 259.572 183.119 259.484 183.114V183.114Z" fill="#1292EE"/>
</g>
<path d="M81.8649 181.251V182.345H82.9585H167.294V181.251H168.387V106.564C168.387 89.3569 165.366 75.8429 158.376 66.615C151.339 57.3236 140.427 52.5668 125.126 52.5668C116.973 52.5668 109.24 54.1507 102.376 58.1622C95.5061 62.177 89.5859 68.5768 84.9884 78.0749C84.0451 79.976 83.3299 82.8798 82.7717 86.4184C82.2085 89.9889 81.7904 94.3083 81.4858 99.1017C80.8763 108.69 80.7164 120.245 80.773 131.636C80.8296 143.031 81.1028 154.279 81.3618 163.259C81.45 166.319 81.5364 169.11 81.612 171.553C81.7588 176.296 81.8649 179.725 81.8649 181.251Z" fill="#914513" stroke="black" stroke-width="2.18714"/>
<g style="mix-blend-mode:darken" opacity="0.2">
<path d="M123.409 53.6604C108.138 54.1272 94.8256 60.6623 85.9704 78.5563C79.0427 92.4978 82.9585 171.915 82.9585 181.251H113.078C110.066 150.132 104.042 128.348 104.042 112.788C104.042 76.3157 115.759 59.8845 123.409 53.6604Z" fill="black"/>
</g>
<path d="M91.9934 102.923L93.6499 127.819C94.1289 139.868 101.029 150.651 111.571 155.826C103.198 136.688 101.36 116.086 101.029 100.34C98.3186 102.073 95.1832 102.969 91.9934 102.923Z" fill="#F5C4B0"/>
<path d="M167.435 174.316L167.433 174.316L152.373 172.386L151.14 172.228V173.471V237.267V238.36H152.234H188.378H189.471V237.267V200.11C189.471 200.11 189.471 200.11 189.471 200.11C189.474 187.037 180.058 175.959 167.435 174.316Z" fill="#864880" stroke="black" stroke-width="2.18714"/>
<path d="M82.8193 174.317L82.8171 174.318C70.1942 175.961 60.7778 187.039 60.7809 200.111C60.7809 200.111 60.7809 200.111 60.7809 200.112V237.268V238.362H61.8745H98.0182H99.1118V237.268V173.473V172.23L97.8793 172.388L82.8193 174.317Z" fill="#864880" stroke="black" stroke-width="2.18714"/>
<path d="M98.4747 205.153L96.9243 204.44V206.147V237.267V238.36H98.0178H152.233H153.327V237.267V206.147V204.44L151.776 205.153C134.811 212.956 115.44 212.956 98.4747 205.153Z" fill="#DBDBDB" stroke="black" stroke-width="2.18714"/>
<path d="M141.279 166.384H141.279V166.376V153.244V152.15H140.185H110.066H108.972V153.244V166.407H108.972L108.972 166.416C108.992 169.045 107.11 171.225 104.657 171.547C104.655 171.547 104.654 171.547 104.653 171.547L97.8833 172.386L96.9243 172.505V173.472V206.147V206.848L97.5609 207.141C115.106 215.21 135.145 215.21 152.69 207.141L153.327 206.848V206.147V173.472V172.51L152.373 172.387L145.598 171.516C145.597 171.516 145.597 171.516 145.597 171.516C143.142 171.195 141.258 169.015 141.279 166.384Z" fill="#FEDAC6" stroke="black" stroke-width="2.18714"/>
<path d="M110.065 122.124H101.029C96.0384 122.124 91.9934 117.944 91.9934 112.788V106.564C91.9934 104.846 93.3428 103.452 95.0053 103.452H119.101V112.788C119.101 117.944 115.056 122.124 110.065 122.124Z" fill="#EBEBEB"/>
<path d="M146.21 122.124H137.174C132.183 122.124 128.138 117.945 128.138 112.788V103.452H152.234C153.896 103.452 155.246 104.847 155.246 106.564V112.788C155.246 117.945 151.201 122.124 146.21 122.124Z" fill="#EBEBEB"/>
<path d="M140.185 167.247V156.355H110.065V167.247C119.201 173.474 131.05 173.474 140.185 167.247Z" fill="#F5C4B0"/>
<path d="M159.349 103.524C159.37 103.216 159.259 102.913 159.044 102.691C153.157 96.609 148.702 88.1941 145.709 81.2358C144.217 77.7676 143.098 74.6842 142.352 72.4693C141.98 71.3622 141.701 70.4731 141.515 69.8626C141.422 69.5573 141.353 69.3218 141.307 69.1636C141.285 69.0845 141.267 69.0247 141.256 68.9852L141.244 68.9413L141.241 68.931L141.24 68.9287L141.24 68.9285C141.13 68.5295 140.804 68.227 140.398 68.147C139.992 68.0671 139.576 68.223 139.322 68.5499L139.322 68.5504L139.322 68.5505L139.317 68.5559L139.295 68.5839C139.274 68.6101 139.242 68.651 139.196 68.7064C139.105 68.8172 138.965 68.9858 138.771 69.2091C138.385 69.6559 137.786 70.3217 136.953 71.1824C135.287 72.9038 132.682 75.4048 128.948 78.491C121.48 84.6633 109.498 93.1786 91.493 102.48C91.1296 102.668 90.9013 103.043 90.9013 103.452V106.564C90.9013 106.591 90.9024 106.619 90.9044 106.647L92.5595 128.412C93.333 146.362 107.654 160.56 125.126 160.56C142.6 160.56 156.923 146.36 157.693 128.407L159.349 103.524Z" fill="#FEDAC6" stroke="black" stroke-width="2.18714" stroke-linejoin="round"/>
<path d="M73.9223 178.574C66.4737 183.019 61.8837 191.225 61.8745 200.109V237.266H73.9223V178.574V178.574Z" fill="#673762"/>
<path d="M110.125 212.272C106.001 211.373 101.983 210.089 98.1201 208.438V237.267H110.125V212.272Z" fill="#BFBFBF"/>
<path d="M159.551 103.425C158.947 103.425 158.457 103.915 158.457 104.519V119.442C158.457 120.046 158.947 120.536 159.551 120.536H161.958C166.584 120.536 170.273 116.672 170.273 111.981C170.273 107.289 166.584 103.425 161.958 103.425H159.551Z" fill="#FEDAC6" stroke="black" stroke-width="2.18714" stroke-linejoin="round"/>
<path d="M123.565 104.351L125.993 126.764L121.618 128.487" stroke="black" stroke-width="1.4581" stroke-linejoin="round"/>
<path d="M114.379 135.025H138.402C138.115 140.359 132.943 144.761 126.39 144.761C119.838 144.761 114.665 140.359 114.379 135.025Z" fill="white" stroke="black" stroke-width="1.34358"/>
<path d="M131.215 105.073C130.409 105.073 129.757 105.726 129.757 106.531V112.373C129.757 116.802 133.347 120.392 137.776 120.392H145.742C150.171 120.392 153.762 116.802 153.762 112.373V106.531C153.762 105.726 153.109 105.073 152.304 105.073H131.215Z" stroke="black" stroke-width="2.91619" stroke-linejoin="round"/>
<path d="M94.8767 105.073C94.0714 105.073 93.4186 105.726 93.4186 106.531V112.373C93.4186 116.802 97.0091 120.392 101.438 120.392H109.405C113.834 120.392 117.424 116.802 117.424 112.373V106.531C117.424 105.726 116.771 105.073 115.966 105.073H94.8767Z" stroke="black" stroke-width="2.91619" stroke-linejoin="round"/>
<path d="M92.2817 106.53C92.2817 104.309 94.0827 102.508 96.3044 102.508H150.878C153.1 102.508 154.901 104.309 154.901 106.53V106.53H92.2817V106.53Z" fill="black"/>
<path d="M154.575 111.894H157.82" stroke="black" stroke-width="3.64524"/>
<path d="M106.249 115.693C107.717 115.693 108.908 113.848 108.908 111.572C108.908 109.296 107.717 107.451 106.249 107.451C104.78 107.451 103.59 109.296 103.59 111.572C103.59 113.848 104.78 115.693 106.249 115.693Z" fill="black"/>
<path d="M142.335 115.693C143.804 115.693 144.994 113.848 144.994 111.572C144.994 109.296 143.804 107.451 142.335 107.451C140.866 107.451 139.676 109.296 139.676 111.572C139.676 113.848 140.866 115.693 142.335 115.693Z" fill="black"/>
<path d="M215.341 273.65L214.974 285.72L300.712 265.386L307.326 223.635H297.268L281.974 239.154L268.609 239.841L254.417 253.712H235.817L215.341 273.65Z" fill="white"/>
<path d="M299.545 234.11C298.566 234.408 297.537 234.623 296.508 234.789L284.607 246.651H269.669L259.71 259.887H239.792L216.555 286.358V288.013H309.504V228.121C306.782 230.884 303.379 232.969 299.545 234.11V234.11Z" fill="#60CF4E"/>
<path d="M292.906 188.745C305.736 188.745 316.143 199.119 316.143 211.908C316.143 218.211 313.604 223.935 309.504 228.121C306.782 230.884 303.379 232.969 299.545 234.11C298.566 234.408 297.537 234.623 296.508 234.789C295.329 234.971 294.134 235.07 292.906 235.07C280.075 235.07 269.668 224.697 269.668 211.908C269.668 199.119 280.075 188.745 292.906 188.745V188.745Z" fill="#FFC729"/>
<path d="M292.906 228.452C302.073 228.452 309.504 221.045 309.504 211.907C309.504 202.77 302.073 195.363 292.906 195.363C283.74 195.363 276.308 202.77 276.308 211.907C276.308 221.045 283.74 228.452 292.906 228.452Z" fill="#FCD770"/>
<path d="M294.565 223.489V220.18C297.31 220.18 299.545 217.953 299.545 215.217C299.545 212.48 297.31 210.253 294.565 210.253H291.246C290.329 210.253 289.586 209.512 289.586 208.599C289.586 207.685 290.329 206.944 291.246 206.944H296.225V208.599H299.545V203.635H294.565V200.326H291.246V203.635C288.5 203.635 286.266 205.862 286.266 208.599C286.266 211.335 288.5 213.562 291.246 213.562H294.565C295.481 213.562 296.225 214.303 296.225 215.217C296.225 216.13 295.481 216.871 294.565 216.871H289.586V215.217H286.266V220.18H291.246V223.489H294.565Z" fill="black"/>
<path d="M311.164 211.908C311.164 201.874 302.973 193.709 292.906 193.709C282.84 193.709 274.648 201.874 274.648 211.908C274.648 221.942 282.84 230.107 292.906 230.107C302.973 230.107 311.164 221.942 311.164 211.908ZM277.968 211.908C277.968 203.697 284.669 197.018 292.906 197.018C301.144 197.018 307.845 203.697 307.845 211.908C307.845 220.119 301.144 226.798 292.906 226.798C284.669 226.798 277.968 220.119 277.968 211.908Z" fill="black"/>
<path d="M317.803 211.908C317.803 198.224 306.634 187.091 292.905 187.091C279.177 187.091 268.008 198.224 268.008 211.908C268.008 222.443 274.639 231.444 283.952 235.037L280.6 238.379H267.255L255.636 251.615H235.747L215.336 273.654L214.895 285.852L217.774 282.683V275.899L237.199 254.924H257.145L268.764 241.688H281.976L287.551 236.131C289.071 236.465 290.643 236.65 292.253 236.692L283.919 244.997H268.838L258.879 258.233H239.038L214.895 285.736V289.667H311.163V228.724C315.27 224.296 317.803 218.398 317.803 211.908ZM271.328 211.908C271.328 200.049 281.008 190.4 292.905 190.4C304.803 190.4 314.483 200.049 314.483 211.908C314.483 223.767 304.803 233.416 292.905 233.416C281.008 233.416 271.328 223.767 271.328 211.908ZM297.885 236.225V286.358H291.246V242.373L297.329 236.309C297.513 236.276 297.702 236.261 297.885 236.225ZM285.294 248.306L287.926 245.682V286.358H281.287V248.306H285.294ZM238.132 286.358H231.493V271.854L238.132 264.291V286.358ZM241.451 261.541H248.091V286.358H241.451V261.541ZM251.41 261.541H258.049V286.358H251.41V261.541ZM261.369 260.438L268.008 251.615V286.358H261.369V260.438ZM271.328 248.306H277.967V286.358H271.328V248.306ZM228.173 275.636V286.358H218.76L228.173 275.636ZM301.204 286.358V235.277C303.61 234.425 305.842 233.219 307.844 231.715V286.358H301.204Z" fill="black"/>
<ellipse cx="197.82" cy="247.028" rx="22.4533" ry="22.381" fill="white"/>
<path d="M238.432 232.67L233.569 228.342L223.662 232.138L222.314 237.683L217.133 261.111L233.957 268.417L236.045 265.73C238.925 259.841 240.541 253.224 240.541 246.229C240.541 241.502 239.799 236.947 238.432 232.67V232.67Z" fill="#FE7D43"/>
<path d="M221.11 258.268L215.205 261.111L200.025 271.769L206.791 286.815L211.621 288.008V288.01C222.415 284.009 231.1 275.843 236.105 265.606L221.11 258.268Z" fill="#EE6161"/>
<path d="M205.84 272.199L202.619 269.949L183.371 267.035L174.123 281.844L178.38 287.188V287.19C183.795 289.511 189.761 290.797 196.029 290.797C201.513 290.797 206.766 289.813 211.622 288.01V288.008L205.84 272.199Z" fill="#C2A1D5"/>
<path d="M184.258 266.656L173.56 249.904L154.893 255.661V263.722C159.398 274.237 167.844 282.675 178.38 287.19V287.188L185.144 271.769L184.258 266.656Z" fill="#8AC9FE"/>
<path d="M159.22 224.987L154.151 230.586H154.149C152.318 235.454 151.316 240.726 151.316 246.23C151.316 252.44 152.591 258.351 154.891 263.723H154.893L170.465 257.222L172.501 252.56L173.724 229.63L159.22 224.987Z" fill="#75CDD5"/>
<path d="M185.567 206.097H176.561C166.277 211.062 158.191 219.838 154.15 230.585H154.152L169.92 236.595L180.23 231.392L193.865 219.167L185.567 206.097Z" fill="#6CF5C2"/>
<path d="M222.513 237.683L221.687 234.022L211.508 236.595L210.96 241.277C211.482 242.833 211.762 244.499 211.762 246.23C211.762 248.624 211.224 250.891 210.262 252.92L210.482 256.656L217.132 260.183L221.11 258.268C222.872 254.628 223.861 250.544 223.861 246.23C223.861 243.247 223.386 240.376 222.513 237.683V237.683Z" fill="#FD6930"/>
<path d="M210.261 252.92C208.542 256.548 205.47 259.411 201.693 260.864L200.241 263.586L203.267 271.31L205.839 272.199C212.547 269.681 218.02 264.657 221.11 258.268L210.261 252.92Z" fill="#E94444"/>
<path d="M201.694 260.864C199.937 261.541 198.026 261.913 196.028 261.913C193.89 261.913 191.853 261.489 189.994 260.716L186.819 261.059L183.042 268.733L185.144 271.769C188.488 273.188 192.167 273.972 196.028 273.972C199.481 273.972 202.788 273.346 205.839 272.199L201.694 260.864Z" fill="#A274BF"/>
<path d="M181.629 252.56L179.145 250.77L171.038 253.57L170.466 257.222C173.296 263.754 178.572 268.985 185.144 271.77L189.994 260.716C186.264 259.173 183.258 256.236 181.629 252.56V252.56Z" fill="#26A6FE"/>
<path d="M217.463 207.11C211.099 203.638 203.794 201.662 196.028 201.662C189.049 201.662 182.444 203.256 176.561 206.097L183.811 221.298L191.014 224.518L213.679 228.343L220.273 214.393L217.463 207.11Z" fill="#FEE97D"/>
<path d="M245.432 229.227C245.656 229.871 245.298 230.571 244.646 230.773L238.546 232.671L226.992 236.264C224.409 228.262 218.802 221.613 211.508 217.657L217.379 207.11L220.485 201.529C220.813 200.938 221.566 200.73 222.151 201.069C232.951 207.309 241.305 217.287 245.432 229.227V229.227Z" fill="#FEC165"/>
<path d="M180.295 246.23C180.295 244.359 180.622 242.564 181.227 240.902L181.088 234.364H174.341L169.921 236.595C168.806 239.595 168.196 242.842 168.196 246.23C168.196 250.135 169.006 253.851 170.467 257.221L181.63 252.56C180.771 250.625 180.295 248.483 180.295 246.23V246.23Z" fill="#2ABCC8"/>
<path d="M189.459 223.117L183.811 221.298C177.423 224.41 172.409 229.891 169.92 236.595L181.226 240.902C182.604 237.1 185.413 233.981 189.007 232.192V232.19L191.597 229.284L189.459 223.117Z" fill="#00F2A6"/>
<path d="M209.275 221.824L209.273 221.823C205.334 219.695 200.823 218.487 196.028 218.487C191.645 218.487 187.499 219.496 183.811 221.298L189.007 232.192C191.12 231.141 193.505 230.546 196.028 230.546C198.694 230.546 201.204 231.207 203.403 232.374L207.363 232.568L211.237 227.419L209.275 221.824Z" fill="#FEDF30"/>
<path d="M226.992 236.264L222.428 237.683L210.96 241.277C209.678 237.432 206.877 234.215 203.338 232.34L209.191 221.823L211.508 217.657C218.802 221.613 224.409 228.262 226.992 236.264V236.264Z" fill="#FDB441"/>
<path d="M246.653 228.769C242.445 216.598 233.955 206.329 222.746 199.851C222.132 199.497 221.417 199.405 220.732 199.594C220.047 199.782 219.48 200.227 219.135 200.846L216.7 205.223C210.27 201.969 203.085 200.255 195.829 200.255C183.509 200.255 171.927 205.037 163.215 213.721C154.503 222.404 149.706 233.95 149.706 246.23C149.706 258.51 154.503 270.056 163.215 278.739C171.926 287.423 183.509 292.205 195.829 292.205C206.218 292.205 216.027 288.842 224.198 282.481C224.813 282.002 224.922 281.118 224.442 280.505C223.961 279.893 223.074 279.784 222.459 280.263C219.298 282.724 215.874 284.706 212.259 286.187L207.431 272.986C213.439 270.388 218.407 265.838 221.524 260.142L234.144 266.364C232.218 269.994 229.76 273.367 226.808 276.38C226.263 276.936 226.274 277.827 226.831 278.37C227.106 278.638 227.462 278.771 227.818 278.771C228.185 278.771 228.551 278.629 228.828 278.347C237.292 269.708 241.953 258.302 241.953 246.23C241.953 241.937 241.357 237.696 240.185 233.6L244.953 232.117C245.636 231.905 246.19 231.437 246.513 230.8C246.836 230.164 246.886 229.442 246.653 228.769V228.769ZM215.329 207.686L208.5 219.955C204.569 218.072 200.219 217.079 195.829 217.079C191.809 217.079 187.895 217.893 184.288 219.438L178.243 206.765C183.707 204.343 189.67 203.07 195.829 203.07C202.607 203.07 209.318 204.663 215.329 207.686V207.686ZM222.25 246.23C222.25 249.817 221.526 253.238 220.217 256.357L211.878 252.245C212.586 250.373 212.975 248.346 212.975 246.23C212.975 244.847 212.808 243.502 212.496 242.213L221.361 239.455C221.948 241.659 222.25 243.93 222.25 246.23V246.23ZM195.829 263.32C197.498 263.32 199.112 263.08 200.639 262.635L203.82 271.333C201.298 272.133 198.614 272.566 195.829 272.566C192.67 272.566 189.639 272.009 186.828 270.991L190.556 262.493C192.247 263.037 194.022 263.32 195.829 263.32ZM195.829 260.505C192.996 260.505 190.257 259.681 187.906 258.121C187.256 257.69 186.38 257.866 185.948 258.513C185.516 259.16 185.692 260.034 186.341 260.464C186.862 260.81 187.399 261.125 187.949 261.41L184.229 269.888C179.017 267.338 174.766 263.127 172.174 257.951L180.753 254.369C181.025 254.869 181.322 255.359 181.646 255.834C182.085 256.477 182.963 256.643 183.608 256.206C184.253 255.768 184.42 254.893 183.981 254.25C182.362 251.88 181.507 249.107 181.507 246.23C181.507 238.358 187.932 231.954 195.829 231.954C203.726 231.954 210.15 238.358 210.15 246.23C210.15 254.101 203.726 260.505 195.829 260.505V260.505ZM169.408 246.23C169.408 243.558 169.809 240.936 170.586 238.432L179.283 241.746C178.893 243.175 178.683 244.679 178.683 246.23C178.683 248.143 179 250.017 179.614 251.793L171.049 255.369C169.989 252.52 169.408 249.442 169.408 246.23V246.23ZM195.829 229.139C193.592 229.139 191.454 229.569 189.492 230.35L185.501 221.982C188.732 220.613 192.234 219.894 195.829 219.894C199.741 219.894 203.617 220.766 207.128 222.421L202.612 230.535C200.531 229.638 198.237 229.139 195.829 229.139ZM211.606 239.541C210.253 236.381 207.971 233.707 205.104 231.862L211.934 219.589C218.002 223.234 222.601 228.755 225.066 235.354L211.606 239.541ZM165.212 215.711C168.35 212.584 171.885 209.998 175.703 207.995L181.75 220.674C179.602 221.853 177.591 223.307 175.769 225.02C175.202 225.553 175.176 226.444 175.711 227.009C175.988 227.303 176.363 227.451 176.738 227.451C177.086 227.451 177.434 227.324 177.707 227.068C179.312 225.559 181.079 224.272 182.966 223.222L186.964 231.606C184.042 233.372 181.689 235.985 180.249 239.1L171.566 235.791C172.221 234.28 173.021 232.826 173.962 231.446C174.4 230.803 174.232 229.928 173.588 229.491C172.942 229.054 172.064 229.221 171.626 229.864C170.561 231.425 169.661 233.073 168.927 234.785L155.776 229.774C157.925 224.577 161.104 219.805 165.212 215.711V215.711ZM154.788 232.411L167.945 237.425C167.049 240.25 166.584 243.211 166.584 246.23C166.584 249.827 167.243 253.273 168.443 256.457L155.453 261.881C153.534 256.957 152.53 251.671 152.53 246.23C152.53 241.458 153.304 236.805 154.788 232.411ZM156.563 264.469L169.564 259.041C172.443 264.881 177.223 269.627 183.097 272.47L177.453 285.334C172.962 283.234 168.824 280.349 165.212 276.748C161.579 273.127 158.673 268.975 156.563 264.469V264.469ZM209.612 287.169C205.225 288.635 200.592 289.39 195.829 289.39C190.341 289.39 185.01 288.377 180.048 286.444L185.694 273.575C188.853 274.742 192.268 275.381 195.829 275.381C198.953 275.381 201.964 274.888 204.788 273.98L209.612 287.169ZM206.462 270.336L203.275 261.623C206.369 260.13 208.947 257.738 210.665 254.788L218.989 258.892C216.197 263.947 211.788 267.993 206.462 270.336ZM239.129 246.23C239.129 252.388 237.834 258.361 235.379 263.833L222.754 257.608C224.247 254.11 225.074 250.265 225.074 246.23C225.074 243.646 224.733 241.091 224.062 238.616L237.488 234.439C238.576 238.263 239.129 242.222 239.129 246.23ZM227.764 234.515C225.078 227.223 220.008 221.126 213.304 217.127L221.506 202.389C231.981 208.498 239.928 218.11 243.915 229.491L227.764 234.515Z" fill="black"/>
<path d="M122.459 287.138H58.0852V285.102L58.0852 211.792H155.705L155.705 283.558C155.705 283.558 155.839 287.159 152.196 287.138C146.561 287.107 122.459 287.138 122.459 287.138Z" fill="#22303A"/>
<path fill-rule="evenodd" clip-rule="evenodd" d="M122.462 289.667L122.459 289.667H58.0852C56.6642 289.667 55.5122 288.535 55.5122 287.139L55.5122 211.792C55.5122 210.395 56.6642 209.263 58.0852 209.263H155.705C157.126 209.263 158.278 210.395 158.278 211.792L158.278 283.531C158.278 283.536 158.278 283.542 158.278 283.548C158.278 283.561 158.278 283.575 158.278 283.59C158.279 283.646 158.278 283.716 158.275 283.8C158.269 283.965 158.255 284.186 158.221 284.444C158.154 284.948 158.005 285.665 157.652 286.416C157.294 287.178 156.7 288.028 155.73 288.677C154.745 289.337 153.544 289.675 152.181 289.667C149.374 289.652 141.95 289.652 135.216 289.655C131.851 289.657 128.663 289.66 126.316 289.663C125.142 289.664 124.179 289.665 123.509 289.666L122.467 289.667H122.462C122.462 289.667 122.462 289.667 122.459 287.139C122.459 287.139 146.561 287.108 152.196 287.139C155.839 287.159 155.705 283.558 155.705 283.558L155.705 211.792H58.0852L58.0852 287.139H122.459L122.462 289.667Z" fill="black"/>
<path d="M155.71 211.792H64.322H58.1268H58.0852V207.718C58.0852 205.459 59.9334 203.644 62.2431 203.644H151.552C153.858 203.644 155.71 205.459 155.71 207.718V211.792Z" fill="#172026"/>
<path fill-rule="evenodd" clip-rule="evenodd" d="M158.283 211.792C158.283 213.188 157.131 214.32 155.71 214.32H58.0852C56.6642 214.32 55.5122 213.188 55.5122 211.792V207.718C55.5122 204.057 58.5178 201.115 62.2431 201.115H151.552C155.272 201.115 158.283 204.055 158.283 207.718V211.792ZM155.71 211.792V207.718C155.71 205.459 153.858 203.644 151.552 203.644H62.2431C59.9334 203.644 58.0852 205.459 58.0852 207.718V211.792H155.71Z" fill="black"/>
<path d="M112.083 224.022H72.5792C71.4295 224.022 70.5002 223.111 70.5002 221.985C70.5002 220.858 71.4295 219.948 72.5792 219.948H112.083C113.233 219.948 114.162 220.858 114.162 221.985C114.162 223.111 113.233 224.022 112.083 224.022Z" fill="#66D1FF"/>
<path d="M118.317 232.169H76.7337C75.5841 232.169 74.6548 231.258 74.6548 230.132C74.6548 229.005 75.5841 228.095 76.7337 228.095H118.317C119.466 228.095 120.396 229.005 120.396 230.132C120.396 231.258 119.466 232.169 118.317 232.169Z" fill="#51E199"/>
<path d="M105.847 272.934H76.7337C75.5841 272.934 74.6548 272.024 74.6548 270.897C74.6548 269.771 75.5841 268.86 76.7337 268.86H105.847C106.997 268.86 107.926 269.771 107.926 270.897C107.926 272.024 106.995 272.934 105.847 272.934Z" fill="#51E199"/>
<path d="M130.793 232.169H126.636C125.486 232.169 124.557 231.258 124.557 230.132C124.557 229.005 125.486 228.095 126.636 228.095H130.793C131.943 228.095 132.872 229.005 132.872 230.132C132.872 231.258 131.943 232.169 130.793 232.169Z" fill="#51E199"/>
<path d="M85.0528 281.058H72.5792C71.4295 281.058 70.5002 280.147 70.5002 279.021C70.5002 277.894 71.4295 276.984 72.5792 276.984H85.0528C86.2025 276.984 87.1317 277.894 87.1317 279.021C87.1317 280.147 86.2025 281.058 85.0528 281.058Z" fill="#66D1FF"/>
<path d="M141.216 240.322H97.554C96.4044 240.322 95.4751 239.411 95.4751 238.285C95.4751 237.158 96.4044 236.248 97.554 236.248H141.216C142.366 236.248 143.295 237.158 143.295 238.285C143.295 239.411 142.366 240.322 141.216 240.322Z" fill="#EB5757"/>
<path d="M107.918 248.457H80.888C79.7384 248.457 78.8091 247.547 78.8091 246.421C78.8091 245.294 79.7384 244.384 80.888 244.384H107.918C109.068 244.384 109.997 245.294 109.997 246.421C109.997 247.547 109.068 248.457 107.918 248.457Z" fill="#FFC757"/>
<path d="M124.567 264.769H80.888C79.7384 264.769 78.8091 263.859 78.8091 262.732C78.8091 261.606 79.7384 260.695 80.888 260.695H124.567C125.716 260.695 126.645 261.606 126.645 262.732C126.645 263.859 125.714 264.769 124.567 264.769Z" fill="#EB5757"/>
<path d="M124.58 256.604H95.4769C94.3272 256.604 93.3979 255.693 93.3979 254.567C93.3979 253.441 94.3272 252.53 95.4769 252.53H124.58C125.73 252.53 126.659 253.441 126.659 254.567C126.659 255.693 125.73 256.604 124.58 256.604Z" fill="#FFC757"/>
<path d="M87.1269 256.604H80.888C79.7384 256.604 78.8091 255.693 78.8091 254.567C78.8091 253.441 79.7384 252.53 80.888 252.53H87.1269C88.2766 252.53 89.2059 253.441 89.2059 254.567C89.2059 255.693 88.2766 256.604 87.1269 256.604Z" fill="#FFC757"/>
<path d="M89.2038 240.322H80.888C79.7384 240.322 78.8091 239.411 78.8091 238.285C78.8091 237.158 79.7384 236.248 80.888 236.248H89.2038C90.3534 236.248 91.2827 237.158 91.2827 238.285C91.2827 239.411 90.3534 240.322 89.2038 240.322Z" fill="#EB5757"/>
<path d="M64.3645 209.753C63.2218 209.753 62.2878 208.843 62.2878 207.716C62.2878 206.59 63.2012 205.679 64.3418 205.679H64.3645C65.5052 205.679 66.4309 206.59 66.4309 207.716C66.4309 208.843 65.5052 209.753 64.3645 209.753Z" fill="#FFC757"/>
<path d="M70.5962 209.753C69.4535 209.753 68.5195 208.843 68.5195 207.716C68.5195 206.59 69.4329 205.679 70.5735 205.679H70.5962C71.7369 205.679 72.6626 206.59 72.6626 207.716C72.6626 208.843 71.7369 209.753 70.5962 209.753Z" fill="#2CD37F"/>
<path d="M76.8279 209.753C75.6852 209.753 74.7512 208.843 74.7512 207.716C74.7512 206.59 75.6646 205.679 76.8052 205.679H76.8279C77.9686 205.679 78.8943 206.59 78.8943 207.716C78.8943 208.843 77.9686 209.753 76.8279 209.753Z" fill="#EB5757"/>
<defs>
<linearGradient id="paint0_linear" x1="92.5433" y1="237.387" x2="196.699" y2="48.3013" gradientUnits="userSpaceOnUse">
<stop offset="0.358854" stop-color="white" stop-opacity="0"/>
<stop offset="1" stop-color="white"/>
</linearGradient>
</defs>
</svg>
